<svg width="272" height="218" viewBox="0 0 272 218" fill="none" xmlns="http://www.w3.org/2000/svg">
<path fill-rule="evenodd" clip-rule="evenodd" d="M2.76249 2.90936C3.39999 2.27186 4.56874 1.52811 5.31248 1.20936C6.16249 0.89061 47.175 0.678113 123.516 0.678113C235.662 0.624985 240.497 0.678113 242.25 1.58124C243.419 2.21874 244.587 3.44061 245.331 4.87499L246.5 7.21249V35.5281V63.8437H242.516H238.531V36.2187V8.59374H123.25H7.96873V77.125V145.656L97.9094 145.55L187.797 145.391L187.956 130.091L188.062 114.791L191.941 114.95L195.766 115.109L195.925 149.534L196.031 183.906H230.031H264.031V145.125V106.344H226.047H188.062V92.4781C188.062 76.9656 188.169 76.4344 191.887 74.2031C193.587 73.1937 194.597 73.1406 230.031 73.1406C264.934 73.1406 266.475 73.1937 268.122 74.15C269.025 74.7344 270.3 76.0625 270.884 77.1781L272 79.1437L271.894 145.55L271.893 145.687V145.688V145.689V145.69V145.691V145.693V145.694V145.695V145.696V145.697V145.699V145.7V145.701C271.734 211.691 271.734 212.011 270.619 213.444C270.034 214.241 268.866 215.409 268.069 215.994C266.634 217.109 266.156 217.109 230.031 217.109C193.747 217.109 193.428 217.109 191.941 215.994C191.144 215.409 189.922 214.081 189.284 213.125L188.062 211.372V182.525V153.625H98.0156H7.96873L8.07498 162.284L8.23436 170.891L93.6594 171.05L179.084 171.156L178.925 175.034L178.766 178.859L163.784 179.019L148.75 179.125V192.141V205.156H157.516H166.334L166.175 208.981L166.016 212.859L123.409 213.019L80.75 213.125V209.141V205.156H89.25H97.75V192.141V179.125H53.0187C25.2344 179.125 7.54374 178.912 6.37498 178.594C4.19686 178.009 1.38124 175.353 0.58436 173.122C0.159361 172.059 -1.44745e-05 146.028 -1.44745e-05 89.2906C-1.44745e-05 84.677 -0.000443418 80.3168 -0.000848826 76.1959C-0.00742628 9.33714 -0.00780835 5.4535 1.93041 3.62676C2.04993 3.51411 2.17683 3.40928 2.31155 3.29799L2.3116 3.29794C2.45309 3.18107 2.60321 3.05705 2.76249 2.90936ZM264.031 98.375V89.6094V80.8437H230.031H196.031V89.6094V98.375H230.031H264.031ZM140.516 204.891L140.675 191.981L140.781 179.125H123.25H105.719L105.825 191.981L105.984 204.891H123.25H140.516ZM264.031 209.406V200.641V191.875H230.031H196.031V200.641V209.406H230.031H264.031ZM221.531 204.625V200.641V196.656H230.031H238.531V200.641V204.625H230.031H221.531ZM21.25 42.8593V63.8437H82.875H144.5L144.394 42.9656L144.234 22.1406L82.7687 21.9812L21.25 21.8749V42.8593ZM136 42.8593V55.8749H82.6094H29.2187V42.8593V29.8437H82.6094H136V42.8593ZM157.781 29.8437V25.8594V21.875H191.781H225.781V25.8594V29.8437H191.781H157.781ZM157.781 42.8593V46.8437H191.781H225.781V42.8593V38.875H191.781H157.781V42.8593ZM157.781 63.8437V59.8593V55.8749H191.781H225.781V59.8593V63.8437H191.781H157.781ZM21.25 76.8594V80.8437H83.1406H145.084L144.925 76.9656L144.766 73.1406L83.0344 72.9812L21.25 72.875V76.8594ZM21.25 97.8437V93.8593V89.875L83.0344 89.9812L144.766 90.1406L144.925 93.9656L145.084 97.8437H83.1406H21.25ZM21.25 110.859V114.844H83.1406H145.084L144.925 110.966L144.766 107.141L83.0344 106.981L21.25 106.875V110.859ZM204.531 157.875V136.625V115.375H229.766H255V136.625V157.875H229.766H204.531ZM246.766 149.641V136.625V123.609L229.659 123.45L212.5 123.344V136.625V149.906L229.659 149.8L246.766 149.641ZM102.212 128.869C102.053 129.241 102 131.1 102.106 132.959L102.266 136.359L106.409 136.519L110.5 136.678V132.375V128.125H106.516C103.647 128.125 102.425 128.337 102.212 128.869ZM119.106 132.959C119 131.1 119.053 129.241 119.212 128.869C119.425 128.337 120.647 128.125 123.516 128.125H127.5V132.375V136.678L123.409 136.519L119.266 136.359L119.106 132.959ZM136.212 128.816C136.053 129.241 136 131.1 136.106 132.959L136.266 136.359H140.516H144.766V132.375V128.391L140.622 128.231C137.487 128.125 136.425 128.231 136.212 128.816ZM204.531 174.875V170.891V166.906H230.031H255.531V170.891V174.875H230.031H204.531Z" fill="url(#paint0_linear_315_199)"/>
<defs>
<linearGradient id="paint0_linear_315_199" x1="-2.07409e-05" y1="0.492137" x2="272.133" y2="217.242" gradientUnits="userSpaceOnUse">
<stop stop-color="#DA22FF"/>
<stop offset="1" stop-color="#9733EE"/>
</linearGradient>
</defs>
</svg>
