<svg width="216" height="248" viewBox="0 0 216 248" fill="none" xmlns="http://www.w3.org/2000/svg">
<path fill-rule="evenodd" clip-rule="evenodd" d="M17.6875 2.82188L19.0156 1.54688L20.2906 0.21875H84.3594H148.428L173.397 24.7625L198.312 49.3594V98.6063V147.906H203.519C210.053 147.906 212.709 149.075 214.622 152.688L215.844 154.972V184.934L215.844 186.521V186.521V186.521V186.521C215.844 212.739 215.845 216.5 213.979 218.619C213.667 218.974 213.302 219.282 212.876 219.643L212.876 219.643L212.709 219.784C210.478 221.644 207.981 222.281 202.722 222.281H198.312V233.703C198.312 243.267 198.312 244.86 197.544 245.863C197.39 246.064 197.206 246.241 196.984 246.453L195.709 247.781H108H20.2906L19.0156 246.453C18.7944 246.241 18.6101 246.064 18.4565 245.863C17.6875 244.86 17.6875 243.267 17.6875 233.703V222.281H13.3312C8.01875 222.281 5.52187 221.644 3.29062 219.784L3.12381 219.643L3.12365 219.643L3.12333 219.643C2.69771 219.282 2.33313 218.973 2.02083 218.619C0.155407 216.5 0.155506 212.739 0.156216 186.52L0.156246 184.934V154.972L1.37812 152.688C3.29062 149.075 5.94687 147.906 12.4812 147.906H17.6875V75.3906V2.82188ZM142.531 53.2906V30.9781V8.71875H84.3594H26.1875V78.3125V147.906H108H189.812V101.688V55.4688H167.553C145.878 55.4688 145.294 55.4156 143.912 54.3531L142.531 53.2906ZM183.65 46.9688L179.984 43.1969C177.912 41.125 170.581 33.9531 163.675 27.2063L151.031 14.9875V30.9781V46.9688H167.341H183.65ZM207.078 213.516L207.237 184.934L207.344 156.406H108H8.65625L8.7625 184.934L8.92187 213.516H108H207.078ZM189.812 239.281V230.781V222.281H108H26.1875V230.781V239.281H108H189.812ZM104.016 100.253C109.381 84.6875 112.037 77.7813 112.834 77.0907C114.906 75.4438 118.147 76.3469 119.209 78.8969C119.794 80.3313 119.156 82.4032 112.197 102.644C107.097 117.572 104.175 125.169 103.378 125.966C101.784 127.613 99.2875 127.559 97.6406 125.859C96.8969 125.169 96.3125 124.106 96.3125 123.522C96.3125 122.991 99.7656 112.472 104.016 100.253ZM63.5875 89.2562C58.5406 94.4625 54.1313 99.4031 53.7594 100.2C53.4406 100.997 53.2813 102.219 53.4938 102.856C53.6531 103.547 58.0094 108.434 63.2156 113.8C73.4156 124.266 74 124.638 76.8688 122.353C77.9313 121.556 78.25 120.812 78.25 119.325C78.25 117.519 77.6125 116.669 70.8125 109.55L63.375 101.794L70.8125 94.0375C77.7188 86.8125 78.25 86.1219 78.25 84.2094C78.25 81.8719 77.1344 80.5969 74.5313 80.1187C72.8313 79.7469 72.5656 79.9594 63.5875 89.2562ZM137.75 84.2094C137.75 82.5625 138.069 81.8719 139.131 81.0219C142 78.7906 142.584 79.1625 152.466 89.3094C157.512 94.5156 161.869 99.4031 162.241 100.2C162.559 100.997 162.719 102.219 162.506 102.856C162.347 103.547 157.991 108.434 152.784 113.8C142.584 124.266 142 124.638 139.131 122.353C138.069 121.503 137.75 120.812 137.75 119.272C137.75 117.466 138.334 116.669 145.188 109.55L152.625 101.794L145.188 94.0375C138.228 86.7594 137.75 86.1219 137.75 84.2094ZM75.9656 165.119C69.9094 167.616 66.7219 170.644 64.0125 176.434C62.7375 179.197 62.5781 180.1 62.5781 185.094C62.5781 190.3 62.6844 190.937 64.2781 194.125C66.4563 198.534 70.1219 202.2 74.5313 204.378C77.8781 206.025 78.1438 206.078 86.3781 206.291C95.7281 206.503 96.95 206.184 97.8531 203.581C98.4906 201.722 97.9063 199.862 96.2063 198.694C95.25 198.003 93.55 197.844 87.9188 197.844C80.375 197.844 78.5688 197.419 75.2219 194.869C74.2656 194.125 72.8313 192.319 72.0875 190.831C70.9188 188.494 70.7063 187.591 70.9188 184.244C71.0781 181.003 71.3438 180.047 72.6719 178.081C73.575 176.859 75.3281 175.106 76.6031 174.203C78.8269 172.615 78.9927 172.609 87.1452 172.346L87.2281 172.344C96.1 172.078 97.0031 171.812 97.9594 169.316C98.4906 167.828 97.5875 165.066 96.3125 164.375C95.7813 164.056 91.6375 163.844 87.175 163.844C79.8438 163.844 78.7281 164.003 75.9656 165.119ZM117.297 169.581C117.881 167.669 118.838 165.544 119.369 164.959C120.484 163.738 122.822 163.472 124.522 164.428C126.594 165.544 126.806 168.359 125.159 172.663C124.947 173.3 125.956 173.406 131.269 173.406H137.697L138.494 170.538C138.972 168.944 139.344 167.403 139.344 167.084C139.344 166.713 139.928 165.863 140.672 165.172C142.478 163.313 145.241 163.366 146.781 165.278C147.95 166.766 148.003 167.669 146.994 171.919C146.675 173.353 146.728 173.406 148.747 173.406C151.828 173.406 153.688 175 153.688 177.656C153.688 180.684 151.881 181.906 147.525 181.906H144.178L143.328 184.669C142.903 186.156 142.531 187.591 142.531 187.856C142.531 188.069 143.966 188.281 145.772 188.281C147.525 188.281 149.438 188.494 149.969 188.813C151.456 189.609 152.094 192.053 151.297 193.966C150.447 195.984 148.322 196.781 143.541 196.781H139.928L138.813 200.553C138.175 202.572 137.219 204.75 136.634 205.334C135.306 206.663 132.916 206.609 131.109 205.175C129.834 204.166 129.675 203.794 129.941 201.616C130.1 200.288 130.419 198.641 130.578 197.95C130.679 197.634 130.752 197.404 130.68 197.236C130.485 196.781 129.229 196.781 124.575 196.781H118.2L117.244 200.553C116.181 204.591 114.747 206.344 112.409 206.344C109.009 206.344 107.522 203.634 108.691 199.544L109.488 196.888L107.044 196.622C102.794 196.144 100.881 192.691 103.219 189.716C104.175 188.494 104.759 188.334 108.159 188.175L111.931 188.016L112.834 185.094L113.738 182.172L110.019 181.906C106.938 181.694 106.141 181.428 105.291 180.366C104.016 178.772 104.016 176.541 105.291 174.947C106.194 173.831 106.884 173.619 111.241 173.406L116.181 173.141L117.297 169.581ZM134.244 185.413C134.722 183.819 135.094 182.384 135.094 182.225C135.094 182.066 132.278 181.906 128.825 181.906H122.503L121.706 184.828C121.281 186.422 121.016 187.856 121.175 188.016C121.334 188.175 124.15 188.281 127.444 188.281H133.447L134.244 185.413Z" fill="url(#paint0_linear_315_198)"/>
<defs>
<linearGradient id="paint0_linear_315_198" x1="215.844" y1="247.781" x2="0.289058" y2="0.351563" gradientUnits="userSpaceOnUse">
<stop stop-color="#9733EE"/>
<stop offset="1" stop-color="#DA22FF"/>
</linearGradient>
</defs>
</svg>
