<svg width="272" height="272" viewBox="0 0 272 272" fill="none" xmlns="http://www.w3.org/2000/svg">
<path fill-rule="evenodd" clip-rule="evenodd" d="M3.29373 23.1625C12.2187 11.5281 40.9062 3.08122 79.9531 0.531221C90.2594 -0.106279 119.159 0.318721 129.094 1.3281C163.466 4.67497 187.372 12.2718 195.712 22.4718C195.947 22.756 196.166 23.0047 196.37 23.237L196.37 23.2371L196.371 23.2372C196.657 23.5628 196.915 23.8559 197.147 24.1681C199.235 26.977 199.234 31.3388 199.221 74.9326V74.9327C199.22 78.6047 199.219 82.555 199.219 86.8062V144.978L230.722 145.137C260.206 145.297 262.278 145.35 264.031 146.306C266.634 147.687 269.237 150.237 270.566 152.734L271.734 154.859V208.516V262.172L270.566 264.297C269.237 266.794 266.634 269.344 264.031 270.725C262.225 271.681 259.037 271.734 182.484 271.894C122.559 272 102.212 271.894 100.512 271.416C97.325 270.512 94.35 268.228 92.5969 265.253L91.1093 262.703L90.8437 249.156L90.5781 235.609L82.875 235.237C62.3687 234.228 40.8 230.722 26.2969 225.941C17 222.912 7.43748 217.547 3.98436 213.456C3.13436 212.5 1.91248 210.481 1.27498 209.047L-1.8876e-05 206.391V118.15C-1.8876e-05 112.573 -0.000718127 107.339 -0.00137456 102.425C-0.0107885 31.9526 -0.0113972 27.3961 2.18544 24.5153C2.3373 24.3162 2.49966 24.1251 2.67325 23.9207C2.86592 23.6939 3.07242 23.4509 3.29373 23.1625ZM187.584 27.1468C178.341 18.4343 150.609 11.5281 117.141 9.56247C72.7812 6.95935 23.9594 15.1406 11.7406 27.2C9.19061 29.75 8.65936 31.2906 9.56248 33.5218C12.2187 39.8437 29.9094 46.8562 52.8594 50.6812C66.8312 53.0187 75.3844 53.7094 93.7656 54.0281C118.15 54.4531 135.203 53.125 153.531 49.4062C175.312 45.05 190.187 37.7718 190.187 31.5031C190.187 29.8562 189.816 29.1656 187.584 27.1468ZM68 61.9968C43.8281 59.2875 26.1375 54.9843 14.3969 48.8219C11.6344 47.3875 9.34998 46.2187 9.24373 46.2187C9.13748 46.2187 9.03123 56.3656 9.03123 68.7968L9.0312 69.9755C9.03053 88.9753 9.03041 92.3824 10.7019 94.4144C11.0672 94.8584 11.5122 95.2367 12.0545 95.6977L12.2187 95.8375C20.5062 102.797 42.1812 108.906 69.0625 111.828C79.7406 112.997 107.844 113.475 119.85 112.678C152.787 110.447 180.253 103.275 188.062 94.775L190.187 92.4375V69.3281C190.187 56.6312 190.081 46.2187 189.922 46.2187C189.762 46.2187 188.487 46.9625 187 47.8656C176.534 54.2937 154.7 59.6593 128.562 62.2625C117.141 63.3781 79.1031 63.2187 68 61.9968ZM78.8375 121.709C51.6906 119.903 28.7937 115.069 15.1406 108.216C13.3875 107.366 11.3156 106.197 10.5187 105.612L9.03123 104.603V127.606C9.03123 149.494 9.08436 150.716 10.0937 152.309C14.1844 159.003 35.3281 166.387 60.0312 169.681C66.6719 170.584 75.4906 171.381 84.8937 171.912L90.8437 172.284V163.784C90.8437 155.762 90.8969 155.178 92.225 152.575C92.9687 151.087 94.5094 149.069 95.6781 148.166C95.7304 148.125 95.7818 148.085 95.8325 148.045C95.875 148.012 95.9171 147.979 95.9586 147.946L95.9588 147.946C96.3766 147.618 96.7475 147.327 97.14 147.069C100.237 145.03 104.676 145.03 144.148 145.031L146.466 145.031H190.187V125.109C190.187 114.166 190.081 105.187 189.922 105.187C189.762 105.187 188.647 105.825 187.425 106.622C177.544 112.837 156.559 118.203 131.484 120.859C120.647 122.028 91.0562 122.506 78.8375 121.709ZM262.969 157.144L261.428 155.603L259.887 154.062H181.581C123.728 154.116 103.062 154.275 102.266 154.7C102.189 154.743 102.115 154.783 102.043 154.822L102.043 154.822C101.869 154.917 101.71 155.003 101.563 155.108C99.922 156.282 99.9189 159.745 99.8809 201.97V201.97C99.8791 204.007 99.8772 206.135 99.875 208.356C99.875 236.566 100.034 260.1 100.194 260.578C100.224 260.657 100.251 260.734 100.276 260.808C100.326 260.95 100.372 261.084 100.436 261.208C101.336 262.973 105.697 262.973 171.9 262.969H171.901C175.023 262.969 178.283 262.969 181.687 262.969H259.887L261.428 261.428L262.969 259.887V208.516V157.144ZM80.6437 180.731C51.1062 178.925 27.9437 173.984 13.8656 166.494C11.4219 165.219 9.34998 164.156 9.24373 164.156C9.08436 164.156 9.08436 173.612 9.13748 185.194L9.29686 206.231L12.0062 208.728C21.4625 217.387 51.1594 224.666 83.2469 226.153L90.8437 226.472V203.894V181.369L80.6437 180.731ZM121.869 183.653C123.569 181.422 128.031 178.341 130.953 177.437C131.856 177.172 134.459 177.012 136.797 177.066C140.462 177.225 141.525 177.491 144.394 179.031C146.2 179.987 148.484 181.634 149.387 182.697C151.725 185.353 153.584 189.762 153.903 193.375C154.169 196.191 154.062 196.616 152.841 197.837C151.884 198.794 150.875 199.219 149.653 199.219C146.997 199.219 145.669 197.837 145.031 194.491C144.341 190.772 142.906 188.594 140.356 187.106C135.947 184.662 130.528 186.256 128.191 190.666C126.703 193.534 126.65 196.084 128.031 198.9C129.572 202.087 132.016 203.469 136.797 204.053C144.181 204.85 149.547 208.462 152.362 214.572C153.584 217.069 153.797 218.291 153.797 222.062C153.797 226.1 153.637 226.95 152.044 230.137C150.131 234.016 147.475 236.672 143.491 238.637C139.931 240.391 132.069 240.391 128.509 238.637C122.559 235.716 118.575 230.031 118.044 223.922C117.831 220.841 117.937 220.469 119.159 219.194C120.116 218.237 121.125 217.812 122.347 217.812C125.003 217.812 126.331 219.194 126.969 222.541C127.978 227.959 131.272 231.094 136 231.094C143.597 231.094 147.794 222.116 142.8 216.431C140.569 213.934 139.612 213.509 135.097 212.978C125.162 211.862 118.628 205.275 118.044 195.819C117.778 191.409 119.053 187.319 121.869 183.653ZM174.516 178.181C170.531 179.828 165.803 184.609 164.369 188.381C162.987 192.153 162.562 221.319 163.891 226.419C166.547 236.991 177.066 242.569 187.584 239.062L190.772 237.947L192.153 239.062C196.403 242.409 201.556 236.831 198.156 232.581C197.766 232.068 197.527 231.753 197.438 231.4C197.298 230.84 197.537 230.185 198.156 228.491C199.112 225.994 199.219 224.347 199.219 208.516C199.219 192.419 199.166 191.091 198.103 188.381C196.669 184.556 193.003 180.519 189.284 178.712C184.928 176.587 178.925 176.375 174.516 178.181ZM186.734 187.797C190.081 190.294 190.187 190.984 190.187 208.462V224.081L188.169 222.966C186.309 222.009 185.937 221.956 184.397 222.594C183.494 222.966 182.431 223.762 182.112 224.347C181.316 225.887 181.475 228.384 182.431 229.447C183.653 230.828 183.494 231.094 181.422 231.094C177.597 231.094 173.931 228.437 172.709 224.772C172.337 223.603 172.125 217.866 172.125 208.516C172.125 199.166 172.337 193.428 172.709 192.259C173.453 190.028 175.578 187.637 177.703 186.681C180.253 185.459 184.45 185.991 186.734 187.797ZM208.781 179.084L210.162 178.022C212.022 176.534 214.253 176.641 216.059 178.181L217.547 179.456L217.706 205.275L217.866 231.094H229.394C241.931 231.094 243.047 231.306 244.269 233.962C245.172 235.716 244.747 237.628 243.206 239.062C242.091 240.072 241.4 240.125 226.791 240.125C212.181 240.125 211.544 240.072 210.162 239.009L208.781 237.947V208.516V179.084Z" fill="url(#paint0_linear_315_197)"/>
<defs>
<linearGradient id="paint0_linear_315_197" x1="-2.17369e-05" y1="0.398401" x2="271.734" y2="271.734" gradientUnits="userSpaceOnUse">
<stop stop-color="#DA22FF"/>
<stop offset="1" stop-color="#9733EE"/>
</linearGradient>
</defs>
</svg>
