<svg width="274" height="274" viewBox="0 0 274 274" fill="none" xmlns="http://www.w3.org/2000/svg">
<mask id="path-1-outside-1_315_196" maskUnits="userSpaceOnUse" x="0" y="0.0355225" width="274" height="274" fill="black">
<rect fill="white" y="0.0355225" width="274" height="274"/>
<path fill-rule="evenodd" clip-rule="evenodd" d="M22.3563 2.06254C17.3094 3.39067 13.1656 5.78129 9.44688 9.44692C5.72813 13.2188 3.39062 17.3094 2.0625 22.5688C1 26.6063 1 28.625 1 122.125C1 215.625 1 217.644 2.0625 221.681C4.71875 232.094 12.7938 239.956 23.3656 242.453C26.0219 243.091 30.5375 243.25 44.6688 243.25H62.5188L62.7313 252.175C62.8906 259.825 63.05 261.366 64.0063 263.491C65.6531 266.997 68.15 269.547 71.55 271.247L74.5781 272.734H137H199.422L202.45 271.247C205.85 269.547 208.347 266.997 209.994 263.491C210.95 261.366 211.109 259.825 211.269 252.175L211.481 243.25H229.331C249.147 243.25 251.325 242.984 257.541 239.903C262.109 237.672 267.422 232.359 269.653 227.791C269.851 227.392 270.037 227.037 270.212 226.702L270.212 226.701C270.422 226.3 270.616 225.928 270.796 225.55C273.011 220.883 273.011 215.164 273.001 138.896C273.001 133.647 273 128.065 273 122.125C273 116.1 273.001 110.442 273.001 105.127C273.011 29.0174 273.011 23.3559 270.827 18.7255C270.651 18.3534 270.462 17.988 270.257 17.5933L270.256 17.5925L270.255 17.5906L270.252 17.5837C270.081 17.2542 269.899 16.9041 269.706 16.5125C267.634 12.3688 262.747 7.21567 258.55 4.82504C256.903 3.86879 253.716 2.64692 251.431 2.06254C247.394 1.00004 245.375 1.00004 136.788 1.05317C29.475 1.05317 26.1281 1.10629 22.3563 2.06254ZM252.281 8.86254C258.284 11.3063 262.694 15.7688 265.138 21.7188C266.306 24.4813 266.359 25.4375 266.519 41.4813L266.678 58.375H137.053H7.375V42.8094C7.375 30.4844 7.53438 26.6063 8.225 24.1094C9.7125 18.3719 13.1656 13.6969 18.1063 10.7219C18.4638 10.5054 18.7672 10.3032 19.0507 10.1141C19.28 9.96127 19.4963 9.81709 19.7176 9.68112C23.393 7.42285 28.4591 7.42781 117.664 7.51524L117.669 7.51525C124.029 7.52148 130.817 7.52814 138.062 7.53442L249.359 7.64067L252.281 8.86254ZM266.519 142.153L266.359 219.609L265.138 222.531C262.694 228.534 258.284 232.944 252.281 235.388C249.466 236.556 248.669 236.609 230.394 236.769L211.375 236.928L211.269 167.441L211.109 97.9532L209.622 94.925C207.922 91.525 205.372 89.0282 201.866 87.3813C199.422 86.2657 199.103 86.2657 149.963 86.2657H100.556L97.5281 87.8594C93.2781 90.1438 66.0781 117.025 64.2188 120.797L62.8906 123.453L62.7313 180.191L62.625 236.928L43.6063 236.769C25.3313 236.609 24.5344 236.556 21.7188 235.388C15.7156 232.944 11.3063 228.534 8.8625 222.531L7.64062 219.609L7.48125 142.153L7.375 64.75H137H266.625L266.519 142.153ZM199.422 93.3844C201.972 94.5532 203.088 95.7219 204.203 98.3782C204.894 100.078 205 109.428 205 179.5C205 249.572 204.894 258.922 204.203 260.622C203.088 263.278 201.972 264.447 199.422 265.616C197.403 266.572 194.375 266.625 137 266.625C79.625 266.625 76.5969 266.572 74.5781 265.616C72.0281 264.447 70.9125 263.278 69.7969 260.622C69.1063 258.922 69 251.059 69 194.641V130.625H83.2375C95.8813 130.625 97.6344 130.519 99.5469 129.616C102.097 128.447 103.213 127.278 104.328 124.622C104.966 123.028 105.125 119.947 105.125 107.516V92.375H151.238C194.8 92.375 197.403 92.4282 199.422 93.3844ZM98.75 108.313C98.75 121.434 98.6969 122.178 97.6875 123.188C96.6781 124.197 95.9344 124.25 83.025 124.25H69.425L70.3281 122.763C71.125 121.647 98.1125 94.6063 98.6438 94.5C98.6969 94.5 98.75 100.716 98.75 108.313ZM29.6875 25.5438C22.675 29.1032 22.675 38.7719 29.6875 42.2782C30.9625 42.9688 32.875 43.5 33.9375 43.5C35 43.5 36.9125 42.9688 38.1875 42.2782C45.2 38.7719 45.2 29.1032 38.1875 25.5438C36.9125 24.9063 35 24.375 33.9375 24.375C32.875 24.375 30.9625 24.9063 29.6875 25.5438ZM36.0625 31.8125C36.6469 32.3969 37.125 33.3532 37.125 33.9375C37.125 35.3188 35.3187 37.125 33.9375 37.125C32.5562 37.125 30.75 35.3188 30.75 33.9375C30.75 33.3532 31.2281 32.3969 31.8125 31.8125C32.3969 31.2282 33.3531 30.75 33.9375 30.75C34.5219 30.75 35.4781 31.2282 36.0625 31.8125ZM63.6875 42.2782C56.675 38.7719 56.675 29.1032 63.6875 25.5438C64.9625 24.9063 66.875 24.375 67.9375 24.375C69 24.375 70.9125 24.9063 72.1875 25.5438C79.2 29.1032 79.2 38.7719 72.1875 42.2782C70.9125 42.9688 69 43.5 67.9375 43.5C66.875 43.5 64.9625 42.9688 63.6875 42.2782ZM71.125 33.9375C71.125 33.3532 70.6469 32.3969 70.0625 31.8125C69.4781 31.2282 68.5219 30.75 67.9375 30.75C67.3531 30.75 66.3969 31.2282 65.8125 31.8125C65.2281 32.3969 64.75 33.3532 64.75 33.9375C64.75 34.5219 65.2281 35.4782 65.8125 36.0625C66.3969 36.6469 67.3531 37.125 67.9375 37.125C68.5219 37.125 69.4781 36.6469 70.0625 36.0625C70.6469 35.4782 71.125 34.5219 71.125 33.9375ZM97.6875 25.5438C90.675 29.1032 90.675 38.7719 97.6875 42.2782C98.9625 42.9688 100.875 43.5 101.938 43.5C103 43.5 104.912 42.9688 106.188 42.2782C113.2 38.7719 113.2 29.1032 106.188 25.5438C104.912 24.9063 103 24.375 101.938 24.375C100.875 24.375 98.9625 24.9063 97.6875 25.5438ZM104.062 31.8125C104.647 32.3969 105.125 33.3532 105.125 33.9375C105.125 34.5219 104.647 35.4782 104.062 36.0625C103.478 36.6469 102.522 37.125 101.938 37.125C101.353 37.125 100.397 36.6469 99.8125 36.0625C99.2281 35.4782 98.75 34.5219 98.75 33.9375C98.75 33.3532 99.2281 32.3969 99.8125 31.8125C100.397 31.2282 101.353 30.75 101.938 30.75C102.522 30.75 103.478 31.2282 104.062 31.8125ZM199.687 42.2782C192.675 38.7719 192.675 29.1032 199.687 25.5438C201.972 24.375 202.397 24.375 220.937 24.375C239.478 24.375 239.903 24.375 242.187 25.5438C249.2 29.1032 249.2 38.7719 242.187 42.2782C239.903 43.5 239.478 43.5 220.937 43.5C202.397 43.5 201.972 43.5 199.687 42.2782ZM241.125 33.9375C241.125 33.3532 240.647 32.3969 240.062 31.8125C239.053 30.8032 238.309 30.75 220.937 30.75C203.566 30.75 202.822 30.8032 201.812 31.8125C201.228 32.3969 200.75 33.3532 200.75 33.9375C200.75 34.5219 201.228 35.4782 201.812 36.0625C202.822 37.0719 203.566 37.125 220.937 37.125C238.309 37.125 239.053 37.0719 240.062 36.0625C240.647 35.4782 241.125 34.5219 241.125 33.9375ZM124.303 162.341C123.241 163.244 123.187 163.828 123.081 180.35L122.922 197.403L121.487 199.528C116.6 206.913 105.497 204.309 104.116 195.384C103.478 191.453 101.512 190.178 98.8031 192.038C97.6875 192.834 97.5812 193.206 97.8469 195.969C98.325 201.388 101.566 206.116 106.612 208.559C110.544 210.472 116.281 210.631 120.053 208.878C123.241 207.444 126.375 204.309 128.022 200.963C129.294 198.418 129.297 198.148 129.455 181.089L129.456 180.988C129.616 164.041 129.616 163.616 128.553 162.553C127.172 161.172 125.791 161.119 124.303 162.341ZM145.288 171.053C146.297 167.547 150.069 163.563 153.522 162.341C155.009 161.809 157.825 161.491 161.491 161.491C166.697 161.438 167.387 161.544 169.991 162.925C173.497 164.731 175.834 168.131 176.206 172.009C176.419 174.4 176.312 174.719 174.984 175.569C173.072 176.844 170.947 176.1 170.256 173.922C168.609 168.397 167.759 167.813 161.331 167.813C156.444 167.813 154 168.663 152.247 171.053C150.812 173.072 150.547 176.206 151.716 178.384C153.416 181.625 154.956 182.316 161.012 182.688C164.997 182.953 167.069 183.378 168.609 184.175C176.95 188.478 178.863 199.263 172.434 205.956C169.406 209.144 167.122 209.994 160.906 210.206C157.613 210.313 154.372 210.153 152.991 209.781C146.297 207.975 141.569 197.563 146.669 195.756C148.741 195.013 150.6 196.394 151.025 199.05C151.238 200.538 151.875 201.6 152.991 202.556C154.478 203.831 155.009 203.938 159.472 203.938C163.403 203.938 164.678 203.725 166.113 202.875C169.725 200.644 170.947 196.288 168.875 192.888C167.122 190.072 164.944 189.063 160.322 189.063C154.903 189.063 151.716 187.894 148.634 184.813C146.084 182.263 144.438 178.491 144.438 175.25C144.438 174.453 144.809 172.594 145.288 171.053Z"/>
</mask>
<path fill-rule="evenodd" clip-rule="evenodd" d="M22.3563 2.06254C17.3094 3.39067 13.1656 5.78129 9.44688 9.44692C5.72813 13.2188 3.39062 17.3094 2.0625 22.5688C1 26.6063 1 28.625 1 122.125C1 215.625 1 217.644 2.0625 221.681C4.71875 232.094 12.7938 239.956 23.3656 242.453C26.0219 243.091 30.5375 243.25 44.6688 243.25H62.5188L62.7313 252.175C62.8906 259.825 63.05 261.366 64.0063 263.491C65.6531 266.997 68.15 269.547 71.55 271.247L74.5781 272.734H137H199.422L202.45 271.247C205.85 269.547 208.347 266.997 209.994 263.491C210.95 261.366 211.109 259.825 211.269 252.175L211.481 243.25H229.331C249.147 243.25 251.325 242.984 257.541 239.903C262.109 237.672 267.422 232.359 269.653 227.791C269.851 227.392 270.037 227.037 270.212 226.702L270.212 226.701C270.422 226.3 270.616 225.928 270.796 225.55C273.011 220.883 273.011 215.164 273.001 138.896C273.001 133.647 273 128.065 273 122.125C273 116.1 273.001 110.442 273.001 105.127C273.011 29.0174 273.011 23.3559 270.827 18.7255C270.651 18.3534 270.462 17.988 270.257 17.5933L270.256 17.5925L270.255 17.5906L270.252 17.5837C270.081 17.2542 269.899 16.9041 269.706 16.5125C267.634 12.3688 262.747 7.21567 258.55 4.82504C256.903 3.86879 253.716 2.64692 251.431 2.06254C247.394 1.00004 245.375 1.00004 136.788 1.05317C29.475 1.05317 26.1281 1.10629 22.3563 2.06254ZM252.281 8.86254C258.284 11.3063 262.694 15.7688 265.138 21.7188C266.306 24.4813 266.359 25.4375 266.519 41.4813L266.678 58.375H137.053H7.375V42.8094C7.375 30.4844 7.53438 26.6063 8.225 24.1094C9.7125 18.3719 13.1656 13.6969 18.1063 10.7219C18.4638 10.5054 18.7672 10.3032 19.0507 10.1141C19.28 9.96127 19.4963 9.81709 19.7176 9.68112C23.393 7.42285 28.4591 7.42781 117.664 7.51524L117.669 7.51525C124.029 7.52148 130.817 7.52814 138.062 7.53442L249.359 7.64067L252.281 8.86254ZM266.519 142.153L266.359 219.609L265.138 222.531C262.694 228.534 258.284 232.944 252.281 235.388C249.466 236.556 248.669 236.609 230.394 236.769L211.375 236.928L211.269 167.441L211.109 97.9532L209.622 94.925C207.922 91.525 205.372 89.0282 201.866 87.3813C199.422 86.2657 199.103 86.2657 149.963 86.2657H100.556L97.5281 87.8594C93.2781 90.1438 66.0781 117.025 64.2188 120.797L62.8906 123.453L62.7313 180.191L62.625 236.928L43.6063 236.769C25.3313 236.609 24.5344 236.556 21.7188 235.388C15.7156 232.944 11.3063 228.534 8.8625 222.531L7.64062 219.609L7.48125 142.153L7.375 64.75H137H266.625L266.519 142.153ZM199.422 93.3844C201.972 94.5532 203.088 95.7219 204.203 98.3782C204.894 100.078 205 109.428 205 179.5C205 249.572 204.894 258.922 204.203 260.622C203.088 263.278 201.972 264.447 199.422 265.616C197.403 266.572 194.375 266.625 137 266.625C79.625 266.625 76.5969 266.572 74.5781 265.616C72.0281 264.447 70.9125 263.278 69.7969 260.622C69.1063 258.922 69 251.059 69 194.641V130.625H83.2375C95.8813 130.625 97.6344 130.519 99.5469 129.616C102.097 128.447 103.213 127.278 104.328 124.622C104.966 123.028 105.125 119.947 105.125 107.516V92.375H151.238C194.8 92.375 197.403 92.4282 199.422 93.3844ZM98.75 108.313C98.75 121.434 98.6969 122.178 97.6875 123.188C96.6781 124.197 95.9344 124.25 83.025 124.25H69.425L70.3281 122.763C71.125 121.647 98.1125 94.6063 98.6438 94.5C98.6969 94.5 98.75 100.716 98.75 108.313ZM29.6875 25.5438C22.675 29.1032 22.675 38.7719 29.6875 42.2782C30.9625 42.9688 32.875 43.5 33.9375 43.5C35 43.5 36.9125 42.9688 38.1875 42.2782C45.2 38.7719 45.2 29.1032 38.1875 25.5438C36.9125 24.9063 35 24.375 33.9375 24.375C32.875 24.375 30.9625 24.9063 29.6875 25.5438ZM36.0625 31.8125C36.6469 32.3969 37.125 33.3532 37.125 33.9375C37.125 35.3188 35.3187 37.125 33.9375 37.125C32.5562 37.125 30.75 35.3188 30.75 33.9375C30.75 33.3532 31.2281 32.3969 31.8125 31.8125C32.3969 31.2282 33.3531 30.75 33.9375 30.75C34.5219 30.75 35.4781 31.2282 36.0625 31.8125ZM63.6875 42.2782C56.675 38.7719 56.675 29.1032 63.6875 25.5438C64.9625 24.9063 66.875 24.375 67.9375 24.375C69 24.375 70.9125 24.9063 72.1875 25.5438C79.2 29.1032 79.2 38.7719 72.1875 42.2782C70.9125 42.9688 69 43.5 67.9375 43.5C66.875 43.5 64.9625 42.9688 63.6875 42.2782ZM71.125 33.9375C71.125 33.3532 70.6469 32.3969 70.0625 31.8125C69.4781 31.2282 68.5219 30.75 67.9375 30.75C67.3531 30.75 66.3969 31.2282 65.8125 31.8125C65.2281 32.3969 64.75 33.3532 64.75 33.9375C64.75 34.5219 65.2281 35.4782 65.8125 36.0625C66.3969 36.6469 67.3531 37.125 67.9375 37.125C68.5219 37.125 69.4781 36.6469 70.0625 36.0625C70.6469 35.4782 71.125 34.5219 71.125 33.9375ZM97.6875 25.5438C90.675 29.1032 90.675 38.7719 97.6875 42.2782C98.9625 42.9688 100.875 43.5 101.938 43.5C103 43.5 104.912 42.9688 106.188 42.2782C113.2 38.7719 113.2 29.1032 106.188 25.5438C104.912 24.9063 103 24.375 101.938 24.375C100.875 24.375 98.9625 24.9063 97.6875 25.5438ZM104.062 31.8125C104.647 32.3969 105.125 33.3532 105.125 33.9375C105.125 34.5219 104.647 35.4782 104.062 36.0625C103.478 36.6469 102.522 37.125 101.938 37.125C101.353 37.125 100.397 36.6469 99.8125 36.0625C99.2281 35.4782 98.75 34.5219 98.75 33.9375C98.75 33.3532 99.2281 32.3969 99.8125 31.8125C100.397 31.2282 101.353 30.75 101.938 30.75C102.522 30.75 103.478 31.2282 104.062 31.8125ZM199.687 42.2782C192.675 38.7719 192.675 29.1032 199.687 25.5438C201.972 24.375 202.397 24.375 220.937 24.375C239.478 24.375 239.903 24.375 242.187 25.5438C249.2 29.1032 249.2 38.7719 242.187 42.2782C239.903 43.5 239.478 43.5 220.937 43.5C202.397 43.5 201.972 43.5 199.687 42.2782ZM241.125 33.9375C241.125 33.3532 240.647 32.3969 240.062 31.8125C239.053 30.8032 238.309 30.75 220.937 30.75C203.566 30.75 202.822 30.8032 201.812 31.8125C201.228 32.3969 200.75 33.3532 200.75 33.9375C200.75 34.5219 201.228 35.4782 201.812 36.0625C202.822 37.0719 203.566 37.125 220.937 37.125C238.309 37.125 239.053 37.0719 240.062 36.0625C240.647 35.4782 241.125 34.5219 241.125 33.9375ZM124.303 162.341C123.241 163.244 123.187 163.828 123.081 180.35L122.922 197.403L121.487 199.528C116.6 206.913 105.497 204.309 104.116 195.384C103.478 191.453 101.512 190.178 98.8031 192.038C97.6875 192.834 97.5812 193.206 97.8469 195.969C98.325 201.388 101.566 206.116 106.612 208.559C110.544 210.472 116.281 210.631 120.053 208.878C123.241 207.444 126.375 204.309 128.022 200.963C129.294 198.418 129.297 198.148 129.455 181.089L129.456 180.988C129.616 164.041 129.616 163.616 128.553 162.553C127.172 161.172 125.791 161.119 124.303 162.341ZM145.288 171.053C146.297 167.547 150.069 163.563 153.522 162.341C155.009 161.809 157.825 161.491 161.491 161.491C166.697 161.438 167.387 161.544 169.991 162.925C173.497 164.731 175.834 168.131 176.206 172.009C176.419 174.4 176.312 174.719 174.984 175.569C173.072 176.844 170.947 176.1 170.256 173.922C168.609 168.397 167.759 167.813 161.331 167.813C156.444 167.813 154 168.663 152.247 171.053C150.812 173.072 150.547 176.206 151.716 178.384C153.416 181.625 154.956 182.316 161.012 182.688C164.997 182.953 167.069 183.378 168.609 184.175C176.95 188.478 178.863 199.263 172.434 205.956C169.406 209.144 167.122 209.994 160.906 210.206C157.613 210.313 154.372 210.153 152.991 209.781C146.297 207.975 141.569 197.563 146.669 195.756C148.741 195.013 150.6 196.394 151.025 199.05C151.238 200.538 151.875 201.6 152.991 202.556C154.478 203.831 155.009 203.938 159.472 203.938C163.403 203.938 164.678 203.725 166.113 202.875C169.725 200.644 170.947 196.288 168.875 192.888C167.122 190.072 164.944 189.063 160.322 189.063C154.903 189.063 151.716 187.894 148.634 184.813C146.084 182.263 144.438 178.491 144.438 175.25C144.438 174.453 144.809 172.594 145.288 171.053Z" fill="url(#paint0_linear_315_196)"/>
<path d="M9.44688 9.44692L8.92032 8.91273L8.9128 8.92036L9.44688 9.44692ZM22.3563 2.06254L22.1719 1.33551L22.1654 1.33724L22.3563 2.06254ZM2.0625 22.5688L2.78784 22.7597L2.78967 22.7524L2.0625 22.5688ZM2.0625 221.681L2.78925 221.496L2.78781 221.49L2.0625 221.681ZM23.3656 242.453L23.5407 241.724L23.538 241.723L23.3656 242.453ZM62.5188 243.25L63.2685 243.232L63.2511 242.5H62.5188V243.25ZM62.7313 252.175L63.4811 252.159L63.481 252.157L62.7313 252.175ZM64.0063 263.491L63.3222 263.798L63.3274 263.81L64.0063 263.491ZM71.55 271.247L71.2146 271.918L71.2193 271.92L71.55 271.247ZM74.5781 272.734L74.2474 273.408L74.4039 273.484H74.5781V272.734ZM199.422 272.734V273.484H199.596L199.753 273.408L199.422 272.734ZM202.45 271.247L202.781 271.92L202.785 271.918L202.45 271.247ZM209.994 263.491L210.673 263.81L210.678 263.798L209.994 263.491ZM211.269 252.175L210.519 252.157L210.519 252.159L211.269 252.175ZM211.481 243.25V242.5H210.749L210.731 243.232L211.481 243.25ZM257.541 239.903L257.211 239.229L257.208 239.231L257.541 239.903ZM269.653 227.791L268.981 227.457L268.979 227.462L269.653 227.791ZM270.212 226.702L269.588 226.286L269.566 226.319L269.547 226.354L270.212 226.702ZM270.212 226.701L270.836 227.118L270.858 227.084L270.877 227.049L270.212 226.701ZM270.796 225.55L270.118 225.228L270.118 225.228L270.796 225.55ZM273.001 138.896L273.751 138.896L273.751 138.896L273.001 138.896ZM273.001 105.127L273.751 105.127L273.751 105.127L273.001 105.127ZM270.827 18.7255L270.148 19.0455L270.148 19.0455L270.827 18.7255ZM270.257 17.5933L270.922 17.2478L270.916 17.2354L270.909 17.2232L270.257 17.5933ZM270.256 17.5925L269.594 17.9454L269.599 17.9541L269.604 17.9626L270.256 17.5925ZM270.255 17.5906L269.589 17.9351L269.593 17.9435L270.255 17.5906ZM270.252 17.5837L270.918 17.2392L270.917 17.2383L270.252 17.5837ZM269.706 16.5125L270.379 16.1811L270.377 16.1771L269.706 16.5125ZM258.55 4.82504L258.173 5.47366L258.179 5.47673L258.55 4.82504ZM251.431 2.06254L251.24 2.78787L251.245 2.78914L251.431 2.06254ZM136.788 1.05317L136.788 1.80317L136.788 1.80317L136.788 1.05317ZM265.138 21.7188L264.444 22.0037L264.447 22.011L265.138 21.7188ZM252.281 8.86254L251.992 9.55451L251.998 9.55719L252.281 8.86254ZM266.519 41.4813L267.269 41.4742L267.269 41.4738L266.519 41.4813ZM266.678 58.375V59.125H267.435L267.428 58.368L266.678 58.375ZM7.375 58.375H6.625V59.125H7.375V58.375ZM8.225 24.1094L8.94795 24.3094L8.951 24.2976L8.225 24.1094ZM18.1063 10.7219L18.4931 11.3644L18.4947 11.3635L18.1063 10.7219ZM19.0507 10.1141L18.6347 9.4901L18.6347 9.4901L19.0507 10.1141ZM19.7176 9.68112L19.3249 9.0421L19.3249 9.0421L19.7176 9.68112ZM117.664 7.51524L117.663 8.26524L117.663 8.26524L117.664 7.51524ZM117.669 7.51525L117.67 6.76525L117.67 6.76525L117.669 7.51525ZM138.062 7.53442L138.063 6.78442L138.063 6.78442L138.062 7.53442ZM249.359 7.64067L249.649 6.94873L249.51 6.89081L249.36 6.89067L249.359 7.64067ZM266.359 219.609L267.051 219.899L267.109 219.761L267.109 219.611L266.359 219.609ZM266.519 142.153L267.269 142.155L267.269 142.154L266.519 142.153ZM265.138 222.531L264.446 222.242L264.443 222.249L265.138 222.531ZM252.281 235.388L251.998 234.693L251.994 234.695L252.281 235.388ZM230.394 236.769L230.4 237.519L230.4 237.519L230.394 236.769ZM211.375 236.928L210.625 236.929L210.626 237.684L211.381 237.678L211.375 236.928ZM211.269 167.441L212.019 167.44L212.019 167.439L211.269 167.441ZM211.109 97.9532L211.859 97.9514L211.859 97.7781L211.783 97.6225L211.109 97.9532ZM209.622 94.925L210.295 94.5944L210.293 94.5896L209.622 94.925ZM201.866 87.3813L202.185 86.7024L202.177 86.699L201.866 87.3813ZM100.556 86.2657V85.5157H100.371L100.207 85.602L100.556 86.2657ZM97.5281 87.8594L97.1788 87.1957L97.173 87.1988L97.5281 87.8594ZM64.2188 120.797L64.8896 121.132L64.8915 121.129L64.2188 120.797ZM62.8906 123.453L62.2198 123.118L62.1411 123.275L62.1406 123.451L62.8906 123.453ZM62.7313 180.191L61.9813 180.189L61.9813 180.189L62.7313 180.191ZM62.625 236.928L62.6187 237.678L63.3736 237.684L63.375 236.93L62.625 236.928ZM43.6063 236.769L43.5997 237.519L43.6 237.519L43.6063 236.769ZM21.7188 235.388L22.0063 234.695L22.0015 234.693L21.7188 235.388ZM8.8625 222.531L9.55718 222.248L9.55444 222.242L8.8625 222.531ZM7.64062 219.609L6.89063 219.611L6.89093 219.761L6.94869 219.899L7.64062 219.609ZM7.48125 142.153L6.73125 142.154L6.73125 142.155L7.48125 142.153ZM7.375 64.75V64H6.62397L6.625 64.7511L7.375 64.75ZM266.625 64.75L267.375 64.7511L267.376 64H266.625V64.75ZM204.203 98.3782L204.898 98.0959L204.895 98.0877L204.203 98.3782ZM199.422 93.3844L199.101 94.0623L199.109 94.0662L199.422 93.3844ZM204.203 260.622L204.895 260.912L204.898 260.904L204.203 260.622ZM199.422 265.616L199.109 264.934L199.101 264.938L199.422 265.616ZM74.5781 265.616L74.8992 264.938L74.8906 264.934L74.5781 265.616ZM69.7969 260.622L69.102 260.904L69.1054 260.912L69.7969 260.622ZM69 130.625V129.875H68.25V130.625H69ZM99.5469 129.616L99.2344 128.934L99.2266 128.937L99.5469 129.616ZM104.328 124.622L105.02 124.912L105.024 124.9L104.328 124.622ZM105.125 92.375V91.625H104.375V92.375H105.125ZM97.6875 123.188L97.1572 122.657L97.1572 122.657L97.6875 123.188ZM69.425 124.25L68.7839 123.861L68.0922 125H69.425V124.25ZM70.3281 122.763L69.7178 122.327L69.7016 122.349L69.687 122.373L70.3281 122.763ZM98.6438 94.5V93.75H98.5695L98.4967 93.7646L98.6438 94.5ZM29.6875 42.2782L30.0447 41.6187L30.0339 41.6128L30.0229 41.6073L29.6875 42.2782ZM29.6875 25.5438L29.3521 24.873L29.348 24.875L29.6875 25.5438ZM38.1875 42.2782L37.8521 41.6073L37.8411 41.6128L37.8303 41.6187L38.1875 42.2782ZM38.1875 25.5438L38.527 24.875L38.5229 24.873L38.1875 25.5438ZM36.0625 31.8125L35.5322 32.3429L35.5322 32.3429L36.0625 31.8125ZM63.6875 25.5438L63.3521 24.873L63.348 24.875L63.6875 25.5438ZM63.6875 42.2782L64.0447 41.6187L64.0339 41.6128L64.0229 41.6073L63.6875 42.2782ZM72.1875 25.5438L72.5269 24.875L72.5229 24.873L72.1875 25.5438ZM72.1875 42.2782L71.8521 41.6073L71.8411 41.6128L71.8303 41.6187L72.1875 42.2782ZM97.6875 42.2782L98.0447 41.6187L98.0339 41.6128L98.0229 41.6073L97.6875 42.2782ZM97.6875 25.5438L97.3521 24.873L97.348 24.875L97.6875 25.5438ZM106.188 42.2782L105.852 41.6073L105.841 41.6128L105.83 41.6187L106.188 42.2782ZM106.188 25.5438L106.527 24.875L106.523 24.873L106.188 25.5438ZM199.687 25.5438L200.027 26.2126L200.029 26.2115L199.687 25.5438ZM199.687 42.2782L200.041 41.6168L200.032 41.612L200.023 41.6073L199.687 42.2782ZM242.187 25.5438L241.846 26.2115L241.848 26.2126L242.187 25.5438ZM242.187 42.2782L241.852 41.6073L241.843 41.612L241.834 41.6168L242.187 42.2782ZM240.062 31.8125L239.532 32.3429L239.532 32.3429L240.062 31.8125ZM201.812 31.8125L201.282 31.2822L201.282 31.2822L201.812 31.8125ZM201.812 36.0625L201.282 36.5929L201.282 36.5929L201.812 36.0625ZM240.062 36.0625L239.532 35.5322L239.532 35.5322L240.062 36.0625ZM123.081 180.35L123.831 180.357L123.831 180.355L123.081 180.35ZM124.303 162.341L123.827 161.761L123.817 161.769L124.303 162.341ZM122.922 197.403L123.544 197.823L123.67 197.636L123.672 197.41L122.922 197.403ZM121.487 199.528L120.866 199.109L120.862 199.114L121.487 199.528ZM104.116 195.384L104.857 195.27L104.856 195.264L104.116 195.384ZM98.8031 192.038L98.3787 191.419L98.3672 191.427L98.8031 192.038ZM97.8469 195.969L98.594 195.903L98.5934 195.897L97.8469 195.969ZM106.612 208.559L106.941 207.885L106.939 207.884L106.612 208.559ZM120.053 208.878L119.745 208.194L119.737 208.198L120.053 208.878ZM128.022 200.963L127.351 200.627L127.349 200.631L128.022 200.963ZM129.455 181.089L128.705 181.082L128.705 181.082L129.455 181.089ZM129.456 180.988L128.706 180.98L128.706 180.981L129.456 180.988ZM128.553 162.553L129.083 162.023L129.083 162.023L128.553 162.553ZM153.522 162.341L153.772 163.048L153.774 163.047L153.522 162.341ZM145.288 171.053L146.004 171.275L146.006 171.268L146.008 171.261L145.288 171.053ZM161.491 161.491V162.241L161.498 162.241L161.491 161.491ZM169.991 162.925L169.639 163.588L169.647 163.592L169.991 162.925ZM176.206 172.009L176.953 171.943L176.953 171.938L176.206 172.009ZM174.984 175.569L174.58 174.937L174.568 174.945L174.984 175.569ZM170.256 173.922L169.537 174.136L169.541 174.149L170.256 173.922ZM152.247 171.053L151.642 170.61L151.635 170.619L152.247 171.053ZM151.716 178.384L152.38 178.036L152.376 178.03L151.716 178.384ZM161.012 182.688L161.062 181.939L161.058 181.939L161.012 182.688ZM168.609 184.175L168.265 184.841L168.266 184.842L168.609 184.175ZM172.434 205.956L171.893 205.437L171.891 205.44L172.434 205.956ZM160.906 210.206L160.93 210.956L160.932 210.956L160.906 210.206ZM152.991 209.781L152.795 210.505L152.796 210.506L152.991 209.781ZM146.669 195.756L146.919 196.463L146.922 196.462L146.669 195.756ZM151.025 199.05L151.768 198.944L151.766 198.932L151.025 199.05ZM152.991 202.556L153.479 201.987L153.479 201.987L152.991 202.556ZM166.113 202.875L166.495 203.52L166.507 203.513L166.113 202.875ZM168.875 192.888L169.515 192.497L169.512 192.491L168.875 192.888ZM148.634 184.813L148.104 185.343L148.104 185.343L148.634 184.813ZM9.97338 9.98105C13.6009 6.40537 17.6296 4.08193 22.5471 2.78785L22.1654 1.33724C16.9891 2.6994 12.7304 5.15721 8.92037 8.91278L9.97338 9.98105ZM2.78967 22.7524C4.08477 17.6238 6.35499 13.6512 9.98095 9.97347L8.9128 8.92036C5.10126 12.7863 2.69648 16.995 1.33533 22.3852L2.78967 22.7524ZM1.75 122.125C1.75 75.3721 1.75001 51.4981 1.88277 38.8063C2.01583 26.0861 2.28477 24.6712 2.78781 22.7597L1.33719 22.3779C0.777731 24.5039 0.515422 26.1171 0.382854 38.7906C0.249988 51.4926 0.25 75.3779 0.25 122.125H1.75ZM2.78781 221.49C2.28477 219.579 2.01583 218.164 1.88277 205.444C1.75001 192.752 1.75 168.878 1.75 122.125H0.25C0.25 168.872 0.249988 192.757 0.382854 205.459C0.515422 218.133 0.777731 219.746 1.33719 221.872L2.78781 221.49ZM23.538 241.723C13.2334 239.289 5.37534 231.633 2.78923 221.496L1.33577 221.867C4.06216 232.554 12.3541 240.623 23.1932 243.183L23.538 241.723ZM44.6688 242.5C37.6021 242.5 32.9535 242.46 29.7418 242.341C26.5243 242.222 24.793 242.024 23.5407 241.724L23.1906 243.182C24.5945 243.519 26.4491 243.72 29.6863 243.84C32.9294 243.96 37.6041 244 44.6688 244V242.5ZM62.5188 242.5H44.6688V244H62.5188V242.5ZM63.481 252.157L63.2685 243.232L61.769 243.268L61.9815 252.193L63.481 252.157ZM64.6902 263.183C63.809 261.225 63.6413 259.852 63.4811 252.159L61.9814 252.191C62.1399 259.798 62.291 261.507 63.3223 263.798L64.6902 263.183ZM71.8854 270.576C68.6369 268.952 66.2607 266.526 64.6851 263.172L63.3274 263.81C65.0456 267.468 67.6631 270.142 71.2146 271.918L71.8854 270.576ZM74.9088 272.061L71.8807 270.574L71.2193 271.92L74.2474 273.408L74.9088 272.061ZM137 271.984H74.5781V273.484H137V271.984ZM199.422 271.984H137V273.484H199.422V271.984ZM202.119 270.574L199.091 272.061L199.753 273.408L202.781 271.92L202.119 270.574ZM209.315 263.172C207.739 266.526 205.363 268.952 202.115 270.576L202.785 271.918C206.337 270.142 208.954 267.468 210.673 263.81L209.315 263.172ZM210.519 252.159C210.359 259.852 210.191 261.225 209.31 263.183L210.678 263.798C211.709 261.507 211.86 259.798 212.019 252.191L210.519 252.159ZM210.731 243.232L210.519 252.157L212.019 252.193L212.231 243.268L210.731 243.232ZM229.331 242.5H211.481V244H229.331V242.5ZM257.208 239.231C254.147 240.748 252.133 241.549 248.447 241.987C244.703 242.432 239.256 242.5 229.331 242.5V244C239.222 244 244.772 243.935 248.624 243.477C252.535 243.012 254.718 242.139 257.874 240.575L257.208 239.231ZM268.979 227.462C267.91 229.651 266.081 232.055 263.943 234.193C261.805 236.331 259.401 238.16 257.211 239.229L257.87 240.577C260.249 239.415 262.786 237.472 265.004 235.254C267.222 233.036 269.165 230.499 270.327 228.12L268.979 227.462ZM269.547 226.354C269.372 226.689 269.183 227.051 268.981 227.457L270.325 228.124C270.519 227.734 270.701 227.385 270.876 227.049L269.547 226.354ZM269.588 226.285L269.588 226.286L270.836 227.118L270.836 227.118L269.588 226.285ZM270.118 225.228C269.946 225.592 269.759 225.95 269.547 226.354L270.877 227.049C271.085 226.65 271.286 226.265 271.473 225.872L270.118 225.228ZM272.251 138.896C272.256 177.037 272.258 197.521 271.983 209.056C271.707 220.629 271.147 223.062 270.118 225.228L271.473 225.872C272.66 223.371 273.208 220.612 273.483 209.092C273.759 197.533 273.756 177.024 273.751 138.896L272.251 138.896ZM272.25 122.125C272.25 128.065 272.251 133.647 272.251 138.896L273.751 138.896C273.751 133.647 273.75 128.065 273.75 122.125H272.25ZM272.251 105.127C272.251 110.442 272.25 116.1 272.25 122.125H273.75C273.75 116.1 273.751 110.442 273.751 105.127L272.251 105.127ZM270.148 19.0455C271.162 21.1939 271.715 23.6047 271.987 35.1393C272.259 46.6357 272.256 67.0661 272.251 105.127L273.751 105.127C273.756 67.0787 273.759 46.6233 273.487 35.1039C273.216 23.6227 272.676 20.8875 271.505 18.4055L270.148 19.0455ZM269.591 17.9388C269.797 18.3359 269.98 18.6886 270.148 19.0455L271.505 18.4055C271.322 18.0183 271.126 17.6402 270.922 17.2478L269.591 17.9388ZM269.604 17.9626L269.604 17.9634L270.909 17.2232L270.909 17.2224L269.604 17.9626ZM269.593 17.9435L269.594 17.9454L270.918 17.2395L270.917 17.2377L269.593 17.9435ZM269.585 17.9282L269.589 17.9351L270.921 17.2461L270.918 17.2392L269.585 17.9282ZM269.033 16.8439C269.23 17.2435 269.415 17.6 269.586 17.9291L270.917 17.2383C270.746 16.9084 270.568 16.5648 270.379 16.1811L269.033 16.8439ZM258.179 5.47673C260.196 6.62573 262.411 8.45932 264.382 10.5287C266.354 12.5988 268.043 14.8627 269.035 16.848L270.377 16.1771C269.298 14.0187 267.507 11.6341 265.468 9.49404C263.429 7.35326 261.101 5.41498 258.921 4.17335L258.179 5.47673ZM251.245 2.78914C253.483 3.36159 256.602 4.56117 258.173 5.47363L258.927 4.17645C257.204 3.17642 253.948 1.93224 251.617 1.33594L251.245 2.78914ZM136.788 1.80317C191.084 1.7766 218.731 1.76333 233.309 1.88947C247.924 2.01592 249.332 2.28563 251.24 2.78785L251.622 1.33724C249.493 0.776956 247.873 0.515419 233.322 0.389523C218.735 0.263313 191.078 0.276606 136.787 0.303167L136.788 1.80317ZM22.5406 2.78954C24.3187 2.33874 25.9921 2.08237 40.7509 1.94923C55.4688 1.81646 83.1291 1.80317 136.788 1.80317V0.303167C83.1334 0.303167 55.464 0.31644 40.7374 0.449291C26.0516 0.581774 24.1657 0.830092 22.1719 1.33554L22.5406 2.78954ZM265.831 21.4339C263.312 15.3008 258.757 10.6888 252.564 8.16789L251.998 9.55719C257.812 11.9238 262.075 16.2368 264.444 22.0037L265.831 21.4339ZM267.269 41.4738C267.189 33.4646 267.136 29.1857 266.955 26.5678C266.77 23.8984 266.446 22.8871 265.828 21.4266L264.447 22.011C264.998 23.3129 265.285 24.1611 265.458 26.6714C265.636 29.2331 265.689 33.4542 265.769 41.4887L267.269 41.4738ZM267.428 58.368L267.269 41.4742L265.769 41.4884L265.928 58.3821L267.428 58.368ZM137.053 59.125H266.678V57.625H137.053V59.125ZM7.375 59.125H137.053V57.625H7.375V59.125ZM6.625 42.8094V58.375H8.125V42.8094H6.625ZM7.50214 23.9095C7.13399 25.2405 6.91867 26.9016 6.79176 29.7404C6.66474 32.5817 6.625 36.6484 6.625 42.8094H8.125C8.125 36.6454 8.16495 32.6106 8.29027 29.8074C8.4157 27.0016 8.62539 25.4752 8.94786 24.3094L7.50214 23.9095ZM17.7194 10.0794C12.6057 13.1586 9.0343 17.9993 7.499 23.9212L8.951 24.2976C10.3907 18.7445 13.7255 14.2353 18.4931 11.3644L17.7194 10.0794ZM18.6347 9.4901C18.3505 9.67954 18.0596 9.87339 17.7178 10.0804L18.4947 11.3635C18.8679 11.1375 19.1838 10.9268 19.4667 10.7382L18.6347 9.4901ZM19.3249 9.0421C19.0898 9.1866 18.8619 9.33864 18.6347 9.4901L19.4667 10.7382C19.6981 10.5839 19.9028 10.4476 20.1102 10.3201L19.3249 9.0421ZM117.665 6.76524C73.0682 6.72153 49.4887 6.69837 36.6015 6.96871C30.1638 7.10375 26.3608 7.3124 23.9294 7.63418C21.4689 7.95984 20.3557 8.4088 19.3249 9.0421L20.1102 10.3201C20.9172 9.8243 21.8156 9.42703 24.1263 9.12121C26.4662 8.81152 30.1941 8.60345 36.633 8.46838C49.4989 8.19849 73.0549 8.22152 117.663 8.26524L117.665 6.76524ZM117.67 6.76525L117.665 6.76524L117.663 8.26524L117.668 8.26525L117.67 6.76525ZM138.063 6.78442C130.818 6.77814 124.03 6.77148 117.67 6.76525L117.668 8.26525C124.028 8.27148 130.816 8.27813 138.062 8.28442L138.063 6.78442ZM249.36 6.89067L138.063 6.78442L138.062 8.28442L249.359 8.39067L249.36 6.89067ZM252.571 8.17061L249.649 6.94873L249.07 8.3326L251.992 9.55448L252.571 8.17061ZM267.109 219.611L267.269 142.155L265.769 142.152L265.609 219.608L267.109 219.611ZM265.829 222.821L267.051 219.899L265.667 219.32L264.446 222.242L265.829 222.821ZM252.564 236.082C258.754 233.562 263.312 229.004 265.832 222.814L264.443 222.249C262.075 228.064 257.814 232.325 251.998 234.693L252.564 236.082ZM230.4 237.519C239.526 237.439 244.321 237.386 247.182 237.205C248.618 237.114 249.598 236.99 250.41 236.805C251.229 236.619 251.853 236.377 252.569 236.08L251.994 234.695C251.301 234.982 250.77 235.185 250.077 235.343C249.377 235.502 248.487 235.62 247.087 235.708C244.278 235.886 239.537 235.939 230.387 236.019L230.4 237.519ZM211.381 237.678L230.4 237.519L230.387 236.019L211.369 236.178L211.381 237.678ZM210.519 167.442L210.625 236.929L212.125 236.927L212.019 167.44L210.519 167.442ZM210.359 97.9549L210.519 167.442L212.019 167.439L211.859 97.9514L210.359 97.9549ZM208.949 95.2557L210.436 98.2838L211.783 97.6225L210.295 94.5944L208.949 95.2557ZM201.547 88.0601C204.901 89.6357 207.327 92.012 208.951 95.2605L210.293 94.5896C208.517 91.0381 205.843 88.4206 202.184 86.7024L201.547 88.0601ZM149.963 87.0157C174.539 87.0157 186.892 87.0157 193.409 87.1549C196.674 87.2247 198.44 87.329 199.533 87.4793C200.581 87.6233 200.987 87.8045 201.554 88.0636L202.177 86.699C201.523 86.4002 200.972 86.1631 199.737 85.9933C198.548 85.8299 196.704 85.725 193.441 85.6553C186.903 85.5156 174.527 85.5157 149.963 85.5157V87.0157ZM100.556 87.0157H149.963V85.5157H100.556V87.0157ZM97.8774 88.5231L100.906 86.9294L100.207 85.602L97.1788 87.1957L97.8774 88.5231ZM64.8915 121.129C65.0763 120.754 65.6413 119.99 66.5824 118.876C67.5012 117.789 68.7237 116.431 70.1586 114.892C73.0275 111.815 76.7271 108.038 80.5042 104.304C84.2813 100.57 88.1304 96.8848 91.2977 93.9931C92.8818 92.5468 94.2909 91.303 95.4328 90.3522C96.5935 89.3857 97.4284 88.7645 97.8832 88.52L97.173 87.1988C96.5654 87.5254 95.6206 88.2439 94.473 89.1995C93.3066 90.1707 91.879 91.4313 90.2864 92.8853C87.1003 95.7942 83.2363 99.4936 79.4497 103.237C75.6632 106.98 71.9485 110.773 69.0616 113.869C67.6187 115.416 66.3778 116.795 65.4367 117.908C64.5178 118.996 63.826 119.897 63.546 120.465L64.8915 121.129ZM63.5614 123.789L64.8896 121.132L63.5479 120.462L62.2198 123.118L63.5614 123.789ZM63.4812 180.193L63.6406 123.455L62.1406 123.451L61.9813 180.189L63.4812 180.193ZM63.375 236.93L63.4812 180.192L61.9813 180.189L61.875 236.927L63.375 236.93ZM43.6 237.519L62.6187 237.678L62.6313 236.178L43.6125 236.019L43.6 237.519ZM21.4312 236.08C22.1466 236.377 22.7712 236.619 23.5904 236.805C24.4023 236.99 25.3818 237.114 26.8179 237.205C29.6794 237.386 34.4742 237.439 43.5997 237.519L43.6128 236.019C34.4633 235.939 29.7222 235.886 26.9126 235.708C25.5131 235.62 24.6233 235.502 23.9228 235.343C23.2296 235.185 22.6987 234.982 22.0063 234.695L21.4312 236.08ZM8.16785 222.814C10.6878 229.004 15.2457 233.562 21.436 236.082L22.0015 234.693C16.1856 232.325 11.9247 228.064 9.55715 222.249L8.16785 222.814ZM6.94869 219.899L8.17057 222.821L9.55444 222.242L8.33256 219.32L6.94869 219.899ZM6.73125 142.155L6.89063 219.611L8.39062 219.608L8.23125 142.152L6.73125 142.155ZM6.625 64.7511L6.73125 142.154L8.23125 142.152L8.125 64.749L6.625 64.7511ZM137 64H7.375V65.5H137V64ZM266.625 64H137V65.5H266.625V64ZM267.269 142.154L267.375 64.7511L265.875 64.749L265.769 142.152L267.269 142.154ZM204.895 98.0877C204.318 96.7159 203.717 95.6673 202.892 94.805C202.066 93.9412 201.057 93.3088 199.734 92.7026L199.109 94.0662C200.337 94.6287 201.161 95.1652 201.809 95.842C202.458 96.5202 202.972 97.3842 203.512 98.6686L204.895 98.0877ZM205.75 179.5C205.75 144.466 205.723 124.606 205.611 113.292C205.554 107.637 205.476 104.107 205.368 101.88C205.314 100.768 205.252 99.9681 205.18 99.3854C205.109 98.8134 205.022 98.402 204.898 98.0959L203.508 98.6605C203.557 98.7793 203.624 99.032 203.691 99.5704C203.757 100.098 203.817 100.855 203.87 101.953C203.976 104.148 204.054 107.653 204.111 113.307C204.223 124.611 204.25 144.463 204.25 179.5H205.75ZM204.898 260.904C205.022 260.598 205.109 260.187 205.18 259.615C205.252 259.032 205.314 258.232 205.368 257.12C205.476 254.893 205.554 251.363 205.611 245.708C205.723 234.394 205.75 214.534 205.75 179.5H204.25C204.25 214.537 204.223 234.389 204.111 245.693C204.054 251.347 203.976 254.852 203.87 257.047C203.817 258.145 203.757 258.902 203.691 259.43C203.624 259.968 203.557 260.221 203.508 260.34L204.898 260.904ZM199.734 266.297C201.057 265.691 202.066 265.059 202.892 264.195C203.717 263.333 204.318 262.284 204.895 260.912L203.512 260.331C202.972 261.616 202.458 262.48 201.809 263.158C201.161 263.835 200.337 264.371 199.109 264.934L199.734 266.297ZM137 267.375C165.684 267.375 180.793 267.362 188.982 267.229C193.072 267.162 195.459 267.066 196.956 266.923C198.47 266.779 199.132 266.583 199.743 266.293L199.101 264.938C198.703 265.126 198.229 265.295 196.814 265.43C195.383 265.566 193.049 265.663 188.957 265.729C180.784 265.862 165.691 265.875 137 265.875V267.375ZM74.2571 266.293C74.8683 266.583 75.5299 266.779 77.0437 266.923C78.5408 267.066 80.9284 267.162 85.0183 267.229C93.2073 267.362 108.316 267.375 137 267.375V265.875C108.309 265.875 93.2161 265.862 85.0426 265.729C80.9512 265.663 78.6174 265.566 77.186 265.43C75.7713 265.295 75.2974 265.126 74.8992 264.938L74.2571 266.293ZM69.1054 260.912C69.6816 262.284 70.2825 263.333 71.1077 264.195C71.9343 265.059 72.943 265.691 74.2656 266.297L74.8906 264.934C73.6633 264.371 72.8392 263.835 72.1915 263.158C71.5425 262.48 71.0278 261.616 70.4884 260.331L69.1054 260.912ZM68.25 194.641C68.25 222.848 68.2766 238.924 68.3895 248.16C68.446 252.776 68.5241 255.696 68.6323 257.572C68.7382 259.41 68.875 260.345 69.102 260.904L70.4917 260.34C70.3734 260.048 70.238 259.364 70.1298 257.486C70.0237 255.647 69.9458 252.756 69.8894 248.142C69.7766 238.917 69.75 222.852 69.75 194.641H68.25ZM68.25 130.625V194.641H69.75V130.625H68.25ZM83.2375 129.875H69V131.375H83.2375V129.875ZM99.2266 128.937C98.3877 129.334 97.575 129.574 95.3702 129.71C93.1407 129.848 89.5682 129.875 83.2375 129.875V131.375C89.5505 131.375 93.1765 131.349 95.4626 131.208C97.7734 131.065 98.7936 130.801 99.8671 130.294L99.2266 128.937ZM103.637 124.331C103.097 125.616 102.583 126.48 101.934 127.158C101.286 127.835 100.462 128.371 99.2344 128.934L99.8594 130.297C101.182 129.691 102.191 129.059 103.017 128.195C103.842 127.333 104.443 126.284 105.02 124.912L103.637 124.331ZM104.375 107.516C104.375 113.734 104.335 117.594 104.216 120.097C104.097 122.619 103.899 123.675 103.632 124.343L105.024 124.9C105.394 123.976 105.595 122.694 105.715 120.168C105.835 117.624 105.875 113.729 105.875 107.516H104.375ZM104.375 92.375V107.516H105.875V92.375H104.375ZM151.238 91.625H105.125V93.125H151.238V91.625ZM199.743 92.7066C198.56 92.1461 197.227 91.9031 190.924 91.7713C184.566 91.6383 173.014 91.625 151.238 91.625V93.125C173.023 93.125 184.554 93.1384 190.893 93.271C197.287 93.4047 198.265 93.6664 199.101 94.0622L199.743 92.7066ZM98.2178 123.718C98.5176 123.418 98.79 123.09 98.9867 122.532C99.1684 122.017 99.2746 121.336 99.3454 120.346C99.4872 118.359 99.5 114.858 99.5 108.313H98C98 114.889 97.9862 118.32 97.8492 120.239C97.7805 121.2 97.6842 121.715 97.572 122.033C97.4749 122.309 97.3621 122.452 97.1572 122.657L98.2178 123.718ZM83.025 125C89.4637 125 92.9127 124.987 94.8729 124.845C95.8509 124.775 96.525 124.668 97.0372 124.486C97.5911 124.289 97.9186 124.017 98.2178 123.718L97.1572 122.657C96.9517 122.863 96.8077 122.976 96.5349 123.073C96.2203 123.184 95.7124 123.281 94.7646 123.349C92.8732 123.486 89.4957 123.5 83.025 123.5V125ZM69.425 125H83.025V123.5H69.425V125ZM69.687 122.373L68.7839 123.861L70.0661 124.639L70.9692 123.152L69.687 122.373ZM98.4967 93.7646C98.3731 93.7893 98.2832 93.8402 98.2618 93.8521C98.2245 93.8728 98.193 93.8938 98.1716 93.9087C98.1278 93.9391 98.0837 93.9737 98.0443 94.0058C97.9635 94.0717 97.862 94.1603 97.7455 94.265C97.5105 94.4763 97.1869 94.7785 96.7903 95.1558C95.9957 95.9115 94.8916 96.9841 93.5822 98.2686C90.9625 100.838 87.5125 104.265 84.0552 107.722C80.5978 111.18 77.1316 114.669 74.4793 117.365C73.1534 118.712 72.0296 119.863 71.2116 120.712C70.8029 121.136 70.4686 121.487 70.2228 121.751C69.9957 121.995 69.8028 122.208 69.7178 122.327L70.9384 123.198C70.9371 123.2 70.9621 123.168 71.0389 123.081C71.1077 123.004 71.2016 122.901 71.3204 122.774C71.5578 122.519 71.8855 122.175 72.292 121.752C73.1045 120.909 74.224 119.763 75.5485 118.417C78.1971 115.725 81.6604 112.239 85.1159 108.783C88.5715 105.328 92.0177 101.904 94.6326 99.3394C95.9404 98.0565 97.038 96.9903 97.8241 96.2426C98.2179 95.8681 98.5293 95.5774 98.7484 95.3804C98.859 95.281 98.9393 95.2115 98.9918 95.1688C99.019 95.1465 99.0295 95.1392 99.0278 95.1404C99.0273 95.1407 99.0138 95.1502 98.9912 95.1628C98.9845 95.1665 98.9061 95.2124 98.7908 95.2355L98.4967 93.7646ZM99.5 108.313C99.5 104.513 99.4867 101.057 99.4668 98.5515C99.4568 97.2989 99.4452 96.2817 99.4326 95.5766C99.4264 95.2248 99.4199 94.947 99.4131 94.7554C99.4098 94.6611 99.4061 94.5801 99.4019 94.5195C99.4 94.4919 99.3969 94.4534 99.3917 94.4154C99.3897 94.4012 99.3836 94.3573 99.3694 94.3056C99.3639 94.2856 99.3451 94.218 99.3025 94.1404C99.2816 94.1023 99.2347 94.0237 99.15 93.9464C99.0614 93.8655 98.889 93.75 98.6438 93.75V95.25C98.3989 95.25 98.2269 95.1347 98.1388 95.0543C98.0545 94.9774 98.008 94.8993 97.9875 94.8619C97.9457 94.7858 97.9278 94.7205 97.9231 94.7035C97.9105 94.6578 97.9061 94.623 97.9058 94.6208C97.9039 94.6068 97.9041 94.6041 97.9055 94.6239C97.9079 94.658 97.9108 94.718 97.914 94.8085C97.9203 94.9865 97.9267 95.2536 97.9329 95.6032C97.9453 96.301 97.9569 97.3125 97.9668 98.5634C97.9867 101.065 98 104.516 98 108.313H99.5ZM30.0229 41.6073C23.5673 38.3795 23.5577 29.4962 30.027 26.2126L29.348 24.875C21.7923 28.7101 21.7827 39.1643 29.3521 42.949L30.0229 41.6073ZM33.9375 42.75C33.5054 42.75 32.8374 42.6372 32.0974 42.4267C31.3659 42.2186 30.6227 41.9318 30.0447 41.6187L29.3303 42.9376C30.0273 43.3152 30.8778 43.6393 31.687 43.8695C32.4876 44.0972 33.3071 44.25 33.9375 44.25V42.75ZM37.8303 41.6187C37.2523 41.9318 36.509 42.2186 35.7776 42.4267C35.0376 42.6372 34.3696 42.75 33.9375 42.75V44.25C34.5679 44.25 35.3874 44.0972 36.188 43.8695C36.9972 43.6393 37.8477 43.3152 38.5447 42.9376L37.8303 41.6187ZM37.848 26.2126C44.3173 29.4962 44.3077 38.3795 37.8521 41.6073L38.5229 42.949C46.0923 39.1643 46.0827 28.7101 38.5269 24.875L37.848 26.2126ZM33.9375 25.125C34.3705 25.125 35.0393 25.2381 35.7834 25.4433C36.5175 25.6459 37.2671 25.9221 37.8521 26.2146L38.5229 24.873C37.8329 24.528 36.9887 24.2198 36.1823 23.9974C35.3857 23.7776 34.567 23.625 33.9375 23.625V25.125ZM30.0229 26.2146C30.6079 25.9221 31.3575 25.6459 32.0916 25.4433C32.8357 25.2381 33.5045 25.125 33.9375 25.125V23.625C33.308 23.625 32.4893 23.7776 31.6927 23.9974C30.8863 24.2198 30.0421 24.528 29.3521 24.873L30.0229 26.2146ZM37.875 33.9375C37.875 33.4767 37.6985 32.9692 37.4837 32.5396C37.261 32.0942 36.9507 31.64 36.5928 31.2822L35.5322 32.3429C35.7587 32.5694 35.9796 32.8856 36.1421 33.2104C36.3125 33.5512 36.375 33.814 36.375 33.9375H37.875ZM33.9375 37.875C34.9144 37.875 35.8917 37.2674 36.5795 36.5796C37.2674 35.8918 37.875 34.9145 37.875 33.9375H36.375C36.375 34.3418 36.0795 34.9583 35.5189 35.5189C34.9583 36.0795 34.3418 36.375 33.9375 36.375V37.875ZM30 33.9375C30 34.9145 30.6076 35.8918 31.2954 36.5796C31.9833 37.2674 32.9605 37.875 33.9375 37.875V36.375C33.5332 36.375 32.9167 36.0795 32.3561 35.5189C31.7955 34.9583 31.5 34.3418 31.5 33.9375H30ZM31.2822 31.2822C30.9243 31.64 30.614 32.0942 30.3913 32.5396C30.1765 32.9692 30 33.4767 30 33.9375H31.5C31.5 33.814 31.5625 33.5512 31.7329 33.2104C31.8954 32.8856 32.1163 32.5694 32.3428 32.3429L31.2822 31.2822ZM33.9375 30C33.4767 30 32.9691 30.1766 32.5396 30.3913C32.0942 30.614 31.64 30.9244 31.2822 31.2822L32.3428 32.3429C32.5694 32.1163 32.8855 31.8954 33.2104 31.733C33.5512 31.5626 33.8139 31.5 33.9375 31.5V30ZM36.5928 31.2822C36.235 30.9244 35.7808 30.614 35.3354 30.3913C34.9059 30.1766 34.3983 30 33.9375 30V31.5C34.061 31.5 34.3238 31.5626 34.6646 31.733C34.9895 31.8954 35.3056 32.1163 35.5322 32.3429L36.5928 31.2822ZM63.348 24.875C55.7923 28.7101 55.7827 39.1643 63.3521 42.949L64.0229 41.6073C57.5673 38.3795 57.5577 29.4962 64.0269 26.2126L63.348 24.875ZM67.9375 23.625C67.3079 23.625 66.4893 23.7776 65.6927 23.9974C64.8863 24.2198 64.0421 24.528 63.3521 24.873L64.0229 26.2146C64.6079 25.9221 65.3574 25.6459 66.0916 25.4433C66.8356 25.2381 67.5045 25.125 67.9375 25.125V23.625ZM72.5229 24.873C71.8329 24.528 70.9887 24.2198 70.1822 23.9974C69.3856 23.7776 68.567 23.625 67.9375 23.625V25.125C68.3704 25.125 69.0393 25.2381 69.7833 25.4433C70.5175 25.6459 71.2671 25.9221 71.8521 26.2146L72.5229 24.873ZM72.5229 42.949C80.0923 39.1643 80.0827 28.7101 72.5269 24.875L71.848 26.2126C78.3173 29.4962 78.3077 38.3795 71.8521 41.6073L72.5229 42.949ZM67.9375 44.25C68.5679 44.25 69.3874 44.0972 70.188 43.8695C70.9972 43.6393 71.8477 43.3152 72.5447 42.9376L71.8303 41.6187C71.2523 41.9318 70.509 42.2186 69.7776 42.4267C69.0376 42.6372 68.3696 42.75 67.9375 42.75V44.25ZM63.3303 42.9376C64.0273 43.3152 64.8778 43.6393 65.687 43.8695C66.4876 44.0972 67.3071 44.25 67.9375 44.25V42.75C67.5054 42.75 66.8374 42.6372 66.0974 42.4267C65.3659 42.2186 64.6227 41.9318 64.0447 41.6187L63.3303 42.9376ZM69.5322 32.3429C69.7587 32.5694 69.9796 32.8856 70.1421 33.2104C70.3124 33.5512 70.375 33.814 70.375 33.9375H71.875C71.875 33.4767 71.6985 32.9692 71.4837 32.5396C71.261 32.0942 70.9507 31.64 70.5928 31.2822L69.5322 32.3429ZM67.9375 31.5C68.061 31.5 68.3238 31.5626 68.6646 31.733C68.9895 31.8954 69.3056 32.1163 69.5322 32.3429L70.5928 31.2822C70.235 30.9244 69.7808 30.614 69.3354 30.3913C68.9059 30.1766 68.3983 30 67.9375 30V31.5ZM66.3428 32.3429C66.5693 32.1163 66.8855 31.8954 67.2104 31.733C67.5512 31.5626 67.8139 31.5 67.9375 31.5V30C67.4767 30 66.9691 30.1766 66.5396 30.3913C66.0941 30.614 65.64 30.9244 65.2822 31.2822L66.3428 32.3429ZM65.5 33.9375C65.5 33.814 65.5625 33.5512 65.7329 33.2104C65.8954 32.8856 66.1163 32.5694 66.3428 32.3429L65.2822 31.2822C64.9243 31.64 64.614 32.0942 64.3913 32.5396C64.1765 32.9692 64 33.4767 64 33.9375H65.5ZM66.3428 35.5322C66.1163 35.3057 65.8954 34.9895 65.7329 34.6646C65.5625 34.3238 65.5 34.0611 65.5 33.9375H64C64 34.3984 64.1765 34.9059 64.3913 35.3354C64.614 35.7809 64.9243 36.235 65.2822 36.5929L66.3428 35.5322ZM67.9375 36.375C67.8139 36.375 67.5512 36.3125 67.2104 36.1421C66.8855 35.9797 66.5693 35.7587 66.3428 35.5322L65.2822 36.5929C65.64 36.9507 66.0941 37.261 66.5396 37.4837C66.9691 37.6985 67.4767 37.875 67.9375 37.875V36.375ZM69.5322 35.5322C69.3056 35.7587 68.9895 35.9797 68.6646 36.1421C68.3238 36.3125 68.061 36.375 67.9375 36.375V37.875C68.3983 37.875 68.9059 37.6985 69.3354 37.4837C69.7808 37.261 70.235 36.9507 70.5928 36.5929L69.5322 35.5322ZM70.375 33.9375C70.375 34.0611 70.3124 34.3238 70.1421 34.6646C69.9796 34.9895 69.7587 35.3057 69.5322 35.5322L70.5928 36.5929C70.9507 36.235 71.261 35.7809 71.4837 35.3354C71.6985 34.9059 71.875 34.3984 71.875 33.9375H70.375ZM98.0229 41.6073C91.5673 38.3795 91.5577 29.4962 98.027 26.2126L97.348 24.875C89.7923 28.7101 89.7827 39.1643 97.3521 42.949L98.0229 41.6073ZM101.938 42.75C101.505 42.75 100.837 42.6372 100.097 42.4267C99.3659 42.2186 98.6227 41.9318 98.0447 41.6187L97.3303 42.9376C98.0273 43.3152 98.8778 43.6393 99.687 43.8695C100.488 44.0972 101.307 44.25 101.938 44.25V42.75ZM105.83 41.6187C105.252 41.9318 104.509 42.2186 103.778 42.4267C103.038 42.6372 102.37 42.75 101.938 42.75V44.25C102.568 44.25 103.387 44.0972 104.188 43.8695C104.997 43.6393 105.848 43.3152 106.545 42.9376L105.83 41.6187ZM105.848 26.2126C112.317 29.4962 112.308 38.3795 105.852 41.6073L106.523 42.949C114.092 39.1643 114.083 28.7101 106.527 24.875L105.848 26.2126ZM101.938 25.125C102.37 25.125 103.039 25.2381 103.783 25.4433C104.518 25.6459 105.267 25.9221 105.852 26.2146L106.523 24.873C105.833 24.528 104.989 24.2198 104.182 23.9974C103.386 23.7776 102.567 23.625 101.938 23.625V25.125ZM98.0229 26.2146C98.6079 25.9221 99.3575 25.6459 100.092 25.4433C100.836 25.2381 101.505 25.125 101.938 25.125V23.625C101.308 23.625 100.489 23.7776 99.6927 23.9974C98.8863 24.2198 98.0421 24.528 97.3521 24.873L98.0229 26.2146ZM105.875 33.9375C105.875 33.4767 105.698 32.9692 105.484 32.5396C105.261 32.0942 104.951 31.64 104.593 31.2822L103.532 32.3429C103.759 32.5694 103.98 32.8856 104.142 33.2104C104.312 33.5512 104.375 33.814 104.375 33.9375H105.875ZM104.593 36.5929C104.951 36.235 105.261 35.7809 105.484 35.3354C105.698 34.9059 105.875 34.3984 105.875 33.9375H104.375C104.375 34.0611 104.312 34.3238 104.142 34.6646C103.98 34.9895 103.759 35.3057 103.532 35.5322L104.593 36.5929ZM101.938 37.875C102.398 37.875 102.906 37.6985 103.335 37.4837C103.781 37.261 104.235 36.9507 104.593 36.5929L103.532 35.5322C103.306 35.7587 102.989 35.9797 102.665 36.1421C102.324 36.3125 102.061 36.375 101.938 36.375V37.875ZM99.2822 36.5929C99.64 36.9507 100.094 37.261 100.54 37.4837C100.969 37.6985 101.477 37.875 101.938 37.875V36.375C101.814 36.375 101.551 36.3125 101.21 36.1421C100.886 35.9797 100.569 35.7587 100.343 35.5322L99.2822 36.5929ZM98 33.9375C98 34.3984 98.1765 34.9059 98.3913 35.3354C98.614 35.7809 98.9243 36.235 99.2822 36.5929L100.343 35.5322C100.116 35.3057 99.8954 34.9895 99.7329 34.6646C99.5625 34.3238 99.5 34.0611 99.5 33.9375H98ZM99.2822 31.2822C98.9243 31.64 98.614 32.0942 98.3913 32.5396C98.1765 32.9692 98 33.4767 98 33.9375H99.5C99.5 33.814 99.5625 33.5512 99.7329 33.2104C99.8954 32.8856 100.116 32.5694 100.343 32.3429L99.2822 31.2822ZM101.938 30C101.477 30 100.969 30.1766 100.54 30.3913C100.094 30.614 99.64 30.9244 99.2822 31.2822L100.343 32.3429C100.569 32.1163 100.886 31.8954 101.21 31.733C101.551 31.5626 101.814 31.5 101.938 31.5V30ZM104.593 31.2822C104.235 30.9244 103.781 30.614 103.335 30.3913C102.906 30.1766 102.398 30 101.938 30V31.5C102.061 31.5 102.324 31.5626 102.665 31.733C102.989 31.8954 103.306 32.1163 103.532 32.3429L104.593 31.2822ZM199.348 24.875C191.792 28.7101 191.783 39.1643 199.352 42.949L200.023 41.6073C193.567 38.3795 193.558 29.4962 200.027 26.2126L199.348 24.875ZM220.937 23.625C211.681 23.625 206.911 23.6247 204.176 23.7722C202.805 23.8461 201.902 23.9589 201.181 24.1409C200.445 24.3268 199.928 24.5781 199.346 24.8761L200.029 26.2115C200.589 25.9251 200.982 25.7381 201.548 25.5953C202.129 25.4486 202.919 25.3422 204.257 25.27C206.94 25.1254 211.653 25.125 220.937 25.125V23.625ZM242.529 24.8761C241.947 24.5781 241.43 24.3268 240.694 24.1409C239.973 23.9589 239.07 23.8461 237.699 23.7722C234.964 23.6247 230.194 23.625 220.937 23.625V25.125C230.222 25.125 234.935 25.1254 237.618 25.27C238.956 25.3422 239.746 25.4486 240.327 25.5953C240.893 25.7381 241.286 25.9251 241.846 26.2115L242.529 24.8761ZM242.523 42.949C250.092 39.1643 250.083 28.7101 242.527 24.875L241.848 26.2126C248.317 29.4962 248.308 38.3795 241.852 41.6073L242.523 42.949ZM220.937 44.25C230.193 44.25 234.964 44.2504 237.701 44.0961C239.073 44.0188 239.979 43.9008 240.702 43.7097C241.441 43.5147 241.959 43.2509 242.541 42.9395L241.834 41.6168C241.274 41.9163 240.882 42.1108 240.319 42.2594C239.741 42.412 238.954 42.5231 237.616 42.5985C234.934 42.7497 230.223 42.75 220.937 42.75V44.25ZM199.334 42.9395C199.916 43.2509 200.434 43.5147 201.173 43.7097C201.896 43.9008 202.802 44.0188 204.174 44.0961C206.911 44.2504 211.682 44.25 220.937 44.25V42.75C211.652 42.75 206.941 42.7497 204.259 42.5985C202.921 42.5231 202.134 42.412 201.556 42.2594C200.993 42.1108 200.601 41.9163 200.041 41.6168L199.334 42.9395ZM239.532 32.3429C239.759 32.5694 239.98 32.8856 240.142 33.2104C240.312 33.5512 240.375 33.814 240.375 33.9375H241.875C241.875 33.4767 241.698 32.9692 241.484 32.5396C241.261 32.0942 240.951 31.64 240.593 31.2822L239.532 32.3429ZM220.937 31.5C229.636 31.5 234.137 31.5136 236.594 31.6516C237.829 31.721 238.482 31.8194 238.873 31.9382C239.205 32.0393 239.339 32.1495 239.532 32.3429L240.593 31.2822C240.282 30.9709 239.943 30.6959 239.31 30.5031C238.734 30.3281 237.926 30.224 236.678 30.1539C234.168 30.013 229.611 30 220.937 30V31.5ZM202.343 32.3429C202.536 32.1495 202.67 32.0393 203.002 31.9382C203.393 31.8194 204.046 31.721 205.281 31.6516C207.738 31.5136 212.239 31.5 220.937 31.5V30C212.264 30 207.707 30.013 205.197 30.1539C203.949 30.224 203.141 30.3281 202.565 30.5031C201.932 30.6959 201.593 30.9709 201.282 31.2822L202.343 32.3429ZM201.5 33.9375C201.5 33.814 201.563 33.5512 201.733 33.2104C201.895 32.8856 202.116 32.5694 202.343 32.3429L201.282 31.2822C200.924 31.64 200.614 32.0942 200.391 32.5396C200.177 32.9692 200 33.4767 200 33.9375H201.5ZM202.343 35.5322C202.116 35.3057 201.895 34.9895 201.733 34.6646C201.563 34.3238 201.5 34.0611 201.5 33.9375H200C200 34.3984 200.177 34.9059 200.391 35.3354C200.614 35.7809 200.924 36.235 201.282 36.5929L202.343 35.5322ZM220.937 36.375C212.239 36.375 207.738 36.3614 205.281 36.2235C204.046 36.1541 203.393 36.0557 203.002 35.9368C202.67 35.8358 202.536 35.7256 202.343 35.5322L201.282 36.5929C201.593 36.9042 201.932 37.1792 202.565 37.3719C203.141 37.547 203.949 37.651 205.197 37.7211C207.707 37.8621 212.264 37.875 220.937 37.875V36.375ZM239.532 35.5322C239.339 35.7256 239.205 35.8358 238.873 35.9368C238.482 36.0557 237.829 36.1541 236.594 36.2235C234.137 36.3614 229.636 36.375 220.937 36.375V37.875C229.611 37.875 234.168 37.8621 236.678 37.7211C237.926 37.651 238.734 37.547 239.31 37.3719C239.943 37.1792 240.282 36.9042 240.593 36.5929L239.532 35.5322ZM240.375 33.9375C240.375 34.0611 240.312 34.3239 240.142 34.6646C239.98 34.9895 239.759 35.3057 239.532 35.5322L240.593 36.5929C240.951 36.235 241.261 35.7809 241.484 35.3354C241.698 34.9059 241.875 34.3984 241.875 33.9375H240.375ZM123.831 180.355C123.884 172.079 123.924 167.834 124.082 165.54C124.161 164.384 124.267 163.799 124.386 163.463C124.482 163.193 124.58 163.09 124.789 162.912L123.817 161.769C123.495 162.043 123.188 162.352 122.972 162.962C122.779 163.506 122.665 164.269 122.585 165.437C122.424 167.791 122.384 172.099 122.331 180.345L123.831 180.355ZM123.672 197.41L123.831 180.357L122.331 180.343L122.172 197.396L123.672 197.41ZM122.109 199.948L123.544 197.823L122.3 196.984L120.866 199.109L122.109 199.948ZM103.374 195.499C104.853 205.054 116.821 207.937 122.113 199.942L120.862 199.114C116.379 205.888 106.14 203.564 104.857 195.27L103.374 195.499ZM99.2275 192.656C100.465 191.807 101.289 191.826 101.834 192.173C102.463 192.572 103.066 193.595 103.375 195.504L104.856 195.264C104.528 193.242 103.829 191.662 102.638 190.906C101.364 190.097 99.8506 190.409 98.3787 191.419L99.2275 192.656ZM98.5934 195.897C98.4568 194.476 98.4394 193.834 98.5352 193.446C98.6009 193.18 98.7157 193.022 99.239 192.648L98.3672 191.427C97.7749 191.85 97.2788 192.277 97.0789 193.086C96.909 193.774 96.9713 194.699 97.1003 196.041L98.5934 195.897ZM106.939 207.884C102.128 205.554 99.0487 201.056 98.594 195.903L97.0998 196.035C97.6013 201.719 101.004 206.677 106.286 209.234L106.939 207.884ZM119.737 208.198C117.981 209.014 115.724 209.401 113.411 209.344C111.101 209.286 108.793 208.786 106.941 207.885L106.284 209.234C108.364 210.245 110.89 210.781 113.374 210.843C115.856 210.905 118.354 210.495 120.369 209.558L119.737 208.198ZM127.349 200.631C125.772 203.836 122.76 206.838 119.745 208.194L120.361 209.562C123.721 208.05 126.978 204.783 128.695 201.294L127.349 200.631ZM128.705 181.082C128.626 189.627 128.586 193.927 128.408 196.415C128.32 197.652 128.2 198.401 128.038 198.981C127.878 199.555 127.668 199.993 127.351 200.627L128.693 201.298C129.012 200.66 129.28 200.11 129.483 199.384C129.684 198.665 129.813 197.803 129.904 196.522C130.086 193.974 130.126 189.609 130.205 181.096L128.705 181.082ZM128.706 180.981L128.705 181.082L130.205 181.096L130.206 180.995L128.706 180.981ZM128.023 163.083C128.25 163.311 128.357 163.437 128.451 163.73C128.565 164.081 128.658 164.677 128.714 165.85C128.825 168.179 128.786 172.492 128.706 180.98L130.206 180.995C130.286 172.537 130.326 168.163 130.212 165.778C130.155 164.593 130.058 163.824 129.878 163.268C129.679 162.652 129.387 162.327 129.083 162.023L128.023 163.083ZM124.779 162.92C125.436 162.381 125.976 162.198 126.433 162.22C126.888 162.241 127.413 162.474 128.023 163.083L129.083 162.023C128.312 161.251 127.455 160.766 126.503 160.722C125.552 160.677 124.658 161.079 123.827 161.761L124.779 162.92ZM153.272 161.634C151.401 162.295 149.499 163.68 147.943 165.325C146.388 166.97 145.114 168.944 144.567 170.846L146.008 171.261C146.47 169.656 147.587 167.885 149.033 166.356C150.479 164.827 152.189 163.608 153.772 163.048L153.272 161.634ZM161.491 160.741C157.815 160.741 154.888 161.056 153.27 161.634L153.774 163.047C155.131 162.562 157.835 162.241 161.491 162.241V160.741ZM170.342 162.263C169.022 161.562 168.112 161.143 166.841 160.93C165.613 160.725 164.067 160.714 161.483 160.741L161.498 162.241C164.12 162.214 165.523 162.23 166.593 162.41C167.619 162.582 168.356 162.907 169.639 163.588L170.342 162.263ZM176.953 171.938C176.556 167.8 174.062 164.179 170.334 162.258L169.647 163.592C172.932 165.284 175.113 168.463 175.46 172.081L176.953 171.938ZM175.389 176.2C176.05 175.778 176.624 175.365 176.883 174.61C177.004 174.257 177.041 173.873 177.042 173.456C177.043 173.039 177.006 172.541 176.953 171.943L175.459 172.076C175.512 172.673 175.542 173.111 175.542 173.453C175.541 173.794 175.509 173.992 175.464 174.124C175.39 174.338 175.247 174.51 174.58 174.937L175.389 176.2ZM169.541 174.149C169.948 175.431 170.805 176.361 171.915 176.748C173.025 177.135 174.277 176.941 175.4 176.193L174.568 174.945C173.779 175.471 173.013 175.543 172.409 175.332C171.806 175.122 171.255 174.591 170.971 173.695L169.541 174.149ZM161.331 168.563C162.937 168.563 164.149 168.6 165.102 168.733C166.049 168.865 166.683 169.086 167.163 169.414C168.13 170.077 168.699 171.324 169.538 174.136L170.975 173.708C170.166 170.994 169.487 169.187 168.01 168.177C167.268 167.668 166.382 167.397 165.31 167.247C164.244 167.098 162.94 167.063 161.331 167.063V168.563ZM152.852 171.497C153.643 170.417 154.571 169.702 155.864 169.243C157.186 168.774 158.919 168.563 161.331 168.563V167.063C158.856 167.063 156.923 167.276 155.363 167.83C153.774 168.393 152.604 169.298 151.642 170.61L152.852 171.497ZM152.376 178.03C151.35 176.116 151.58 173.287 152.858 171.488L151.635 170.619C150.045 172.857 149.744 176.296 151.055 178.739L152.376 178.03ZM161.058 181.939C158.019 181.752 156.255 181.488 155.044 180.931C153.903 180.405 153.193 179.586 152.38 178.036L151.051 178.733C151.938 180.423 152.849 181.57 154.417 182.293C155.916 182.984 157.95 183.251 160.967 183.436L161.058 181.939ZM168.954 183.509C167.265 182.635 165.057 182.206 161.062 181.939L160.963 183.436C164.937 183.701 166.872 184.121 168.265 184.841L168.954 183.509ZM172.975 206.476C179.762 199.409 177.725 188.034 168.953 183.509L168.266 184.842C176.175 188.922 177.963 199.117 171.893 205.437L172.975 206.476ZM160.932 210.956C164.055 210.849 166.281 210.582 168.125 209.9C169.997 209.21 171.417 208.116 172.978 206.473L171.891 205.44C170.423 206.984 169.188 207.909 167.606 208.493C165.997 209.087 163.973 209.351 160.881 209.457L160.932 210.956ZM152.796 210.506C153.568 210.713 154.791 210.849 156.192 210.922C157.61 210.996 159.265 211.01 160.93 210.956L160.882 209.457C159.254 209.509 157.641 209.496 156.27 209.424C154.882 209.351 153.795 209.221 153.186 209.057L152.796 210.506ZM146.418 195.049C144.837 195.609 144.021 196.865 143.82 198.356C143.626 199.802 143.999 201.476 144.724 203.078C146.167 206.27 149.17 209.527 152.795 210.505L153.186 209.057C150.118 208.229 147.41 205.377 146.09 202.46C145.434 201.007 145.163 199.627 145.307 198.556C145.445 197.53 145.951 196.806 146.919 196.463L146.418 195.049ZM151.766 198.932C151.531 197.463 150.884 196.258 149.915 195.529C148.927 194.786 147.678 194.597 146.415 195.05L146.922 196.462C147.732 196.172 148.448 196.302 149.014 196.728C149.598 197.167 150.094 197.981 150.284 199.169L151.766 198.932ZM153.479 201.987C152.488 201.138 151.952 200.235 151.767 198.944L150.283 199.156C150.523 200.84 151.262 202.062 152.503 203.126L153.479 201.987ZM159.472 203.188C157.212 203.188 156.054 203.157 155.271 202.991C154.574 202.843 154.183 202.591 153.479 201.987L152.503 203.126C153.286 203.797 153.904 204.235 154.96 204.459C155.931 204.665 157.269 204.688 159.472 204.688V203.188ZM165.73 202.23C164.489 202.966 163.402 203.188 159.472 203.188V204.688C163.404 204.688 164.868 204.485 166.495 203.52L165.73 202.23ZM168.235 193.278C170.066 196.283 169.024 200.195 165.718 202.237L166.507 203.513C170.426 201.092 171.828 196.292 169.515 192.497L168.235 193.278ZM160.322 189.813C162.591 189.813 164.167 190.063 165.366 190.603C166.541 191.132 167.42 191.97 168.238 193.284L169.512 192.491C168.577 190.99 167.491 189.915 165.982 189.235C164.499 188.567 162.675 188.313 160.322 188.313V189.813ZM148.104 185.343C149.708 186.946 151.365 188.076 153.345 188.798C155.315 189.516 157.562 189.813 160.322 189.813V188.313C157.663 188.313 155.607 188.025 153.858 187.388C152.119 186.755 150.642 185.76 149.165 184.282L148.104 185.343ZM143.688 175.25C143.688 178.711 145.429 182.668 148.104 185.343L149.165 184.282C146.739 181.857 145.188 178.27 145.188 175.25H143.688ZM144.571 170.831C144.324 171.627 144.105 172.502 143.948 173.282C143.794 174.046 143.688 174.772 143.688 175.25H145.188C145.188 174.931 145.267 174.329 145.418 173.579C145.567 172.845 145.773 172.019 146.004 171.275L144.571 170.831Z" fill="url(#paint1_linear_315_196)" mask="url(#path-1-outside-1_315_196)"/>
<defs>
<linearGradient id="paint0_linear_315_196" x1="0.999994" y1="1.00007" x2="273.133" y2="272.734" gradientUnits="userSpaceOnUse">
<stop stop-color="#DA22FF"/>
<stop offset="1" stop-color="#9733EE"/>
</linearGradient>
<linearGradient id="paint1_linear_315_196" x1="0.999996" y1="1.00001" x2="273" y2="273" gradientUnits="userSpaceOnUse">
<stop stop-color="#DA22FF"/>
<stop offset="1" stop-color="#9733EE"/>
</linearGradient>
</defs>
</svg>
